<?xml version="1.0" standalone="no"?>
<!DOCTYPE svg PUBLIC "-//W3C//DTD SVG 20010904//EN"
 "http://www.w3.org/TR/2001/REC-SVG-20010904/DTD/svg10.dtd">
<svg version="1.0" xmlns="http://www.w3.org/2000/svg"
 width="558.000000pt" height="558.000000pt" viewBox="0 0 558.000000 558.000000"
 preserveAspectRatio="xMidYMid meet">
<metadata>
Created by potrace 1.14, written by Peter Selinger 2001-2017
</metadata>
<g transform="translate(0.000000,558.000000) scale(0.100000,-0.100000)"
fill="#000000" stroke="none">
<path d="M1060 5570 c8 -5 18 -6 24 -3 5 3 6 1 3 -4 -4 -6 1 -17 10 -24 14
-12 15 -11 9 11 -6 21 -5 22 4 8 7 -11 8 -24 2 -34 -8 -15 -10 -15 -15 1 -4 9
-12 13 -18 9 -8 -4 -7 -9 2 -16 10 -6 7 -7 -8 -3 -23 6 -25 3 -25 -45 0 -11 0
-24 1 -29 1 -10 53 -7 71 4 10 6 11 4 4 -6 -5 -8 -9 -26 -10 -41 -1 -28 6 -32
51 -29 16 1 20 -4 20 -26 1 -15 -4 -31 -10 -35 -6 -5 -2 -8 8 -8 10 0 16 -4
13 -8 -3 -5 1 -9 9 -9 8 0 12 4 9 9 -8 12 29 6 38 -7 4 -5 1 -16 -5 -24 -10
-12 -9 -13 2 -6 10 5 12 4 7 -4 -8 -12 18 -44 28 -34 4 4 17 8 29 10 17 2 19
1 7 -7 -8 -5 -10 -10 -4 -10 7 0 9 -11 6 -26 -3 -20 0 -26 17 -31 11 -3 19 -9
16 -12 -2 -4 2 -8 9 -8 8 0 12 7 8 15 -3 10 -1 13 6 8 7 -4 12 -20 12 -37 0
-16 5 -29 11 -29 5 0 7 -5 4 -10 -8 -12 17 -9 26 4 4 4 15 3 25 -3 11 -6 13
-11 6 -11 -9 0 -10 -5 -4 -17 5 -10 7 -24 4 -32 -3 -10 0 -12 12 -8 16 6 23
-7 9 -16 -5 -2 -3 -2 4 -1 6 2 14 -2 16 -9 2 -7 3 -3 1 8 -2 15 2 21 15 21 16
0 17 -4 10 -23 -6 -16 -5 -23 4 -23 8 0 7 -4 -3 -10 -11 -7 -11 -10 -2 -10 8
0 10 -5 6 -12 -6 -10 -5 -10 7 -1 12 10 18 10 28 0 9 -9 14 -9 21 3 8 13 10
12 10 -2 0 -10 -6 -18 -12 -19 -7 0 -4 -4 7 -9 11 -5 14 -9 7 -9 -9 -1 -10 -5
-1 -19 8 -13 20 -17 41 -14 30 4 30 4 26 -30 -3 -30 -1 -35 16 -34 10 1 21 -5
24 -13 2 -8 0 -11 -5 -8 -5 3 -10 0 -10 -8 0 -12 3 -12 16 -2 12 10 14 9 8 -5
-4 -11 -2 -17 5 -15 14 3 26 -40 20 -71 -3 -16 -11 -23 -26 -21 -43 3 -48 0
-44 -33 2 -20 -2 -33 -11 -36 -8 -3 -11 0 -8 5 7 11 -23 11 -41 -1 -8 -4 -11
-14 -8 -21 2 -7 -1 -18 -7 -24 -8 -8 -8 -11 2 -11 7 0 10 -4 7 -9 -9 -13 -42
-6 -38 9 1 6 -2 9 -8 5 -6 -3 -8 -11 -5 -16 4 -5 -1 -9 -11 -9 -13 0 -15 -7
-12 -35 4 -33 3 -34 -37 -37 -36 -3 -40 -6 -37 -27 2 -14 0 -21 -6 -17 -6 4
-14 1 -18 -5 -4 -7 -3 -9 3 -6 6 4 22 -2 35 -13 17 -13 28 -16 35 -9 8 8 13 7
18 -2 5 -7 4 -10 -3 -5 -6 3 -14 1 -17 -4 -5 -8 -13 -6 -25 5 -11 10 -31 15
-52 13 -29 -3 -33 -7 -36 -35 -3 -30 -6 -33 -36 -33 -25 0 -33 -4 -33 -17 0
-46 -3 -54 -20 -51 -10 2 -17 9 -16 14 1 6 -5 11 -12 11 -10 0 -12 -4 -5 -13
8 -8 3 -14 -17 -19 -16 -5 -31 -8 -35 -7 -5 1 -8 -3 -8 -8 0 -13 6 -13 31 0
24 13 25 2 2 -17 -10 -8 -12 -12 -5 -8 7 4 12 0 12 -11 0 -12 -6 -15 -24 -12
-14 3 -30 2 -37 -3 -13 -8 -21 -49 -9 -49 4 0 7 -7 7 -15 0 -13 -4 -12 -20 2
-11 10 -17 13 -14 7 4 -7 -3 -14 -19 -18 -20 -5 -25 -12 -21 -26 3 -11 0 -20
-6 -20 -7 0 -5 -5 3 -10 12 -8 10 -10 -11 -10 -14 0 -31 6 -38 13 -11 10 -13
9 -7 -1 4 -7 0 -15 -9 -18 -14 -6 -14 -9 -3 -16 9 -7 6 -8 -11 -4 l-23 5 21
-21 c28 -25 22 -31 -31 -32 -40 -1 -60 -17 -39 -31 7 -4 9 1 5 12 -5 15 -4 15
7 -1 9 -14 9 -21 1 -24 -6 -2 -9 -9 -6 -16 4 -10 -2 -12 -20 -9 -16 3 -23 10
-19 17 4 8 3 8 -6 0 -11 -10 -18 -40 -20 -84 -1 -13 -2 -13 -11 0 -9 13 -11
13 -20 0 -5 -8 -10 -11 -10 -6 0 5 -6 3 -13 -3 -8 -6 -16 -9 -18 -6 -3 2 -3
-11 -1 -29 4 -31 2 -33 -21 -29 -15 3 -35 -2 -49 -12 -13 -10 -16 -15 -8 -12
11 3 16 -3 16 -23 1 -25 -1 -27 -33 -25 -19 1 -36 -2 -39 -7 -3 -5 -10 -5 -16
-2 -7 4 -8 2 -4 -5 4 -6 11 -9 15 -7 4 3 8 -1 8 -9 0 -15 -10 -19 -34 -16 -6
1 -14 -2 -17 -7 -3 -5 6 -8 19 -6 14 1 25 -1 25 -5 0 -7 -38 -13 -85 -12 -16
0 -17 -2 -5 -9 8 -5 19 -6 25 -2 5 3 4 -1 -3 -10 -9 -11 -10 -18 -2 -23 15 -9
12 -22 -5 -22 -8 0 -12 4 -9 9 3 4 0 8 -5 8 -6 0 -11 -5 -11 -11 0 -6 -7 -9
-15 -5 -8 3 -15 1 -15 -4 0 -5 -8 -7 -17 -4 -16 5 -16 4 -3 -8 9 -7 15 -20 15
-28 -2 -25 16 -41 39 -35 19 5 19 5 3 -5 -14 -9 -22 -8 -34 2 -20 16 -70 19
-76 4 -2 -6 -3 -23 -2 -37 2 -23 -2 -26 -24 -24 -41 4 -50 -4 -46 -42 3 -35 3
-35 -30 -30 -24 4 -35 1 -39 -9 -3 -9 -10 -13 -15 -9 -5 3 -13 1 -16 -5 -5 -8
-12 -7 -23 2 -15 12 -16 11 -3 -4 11 -14 11 -18 1 -18 -8 0 -10 -3 -7 -7 4 -3
15 1 25 10 20 18 39 11 39 -15 0 -13 -7 -17 -25 -13 -18 3 -32 -4 -53 -26 -25
-27 -29 -28 -38 -12 -5 10 -13 14 -17 10 -10 -10 27 -36 43 -30 6 3 14 10 16
16 2 7 3 4 2 -5 -2 -10 1 -21 6 -24 5 -3 9 -11 9 -17 0 -8 -3 -8 -9 1 -4 7
-22 15 -39 17 -26 3 -32 0 -32 -14 0 -10 -12 -24 -26 -31 -22 -12 -27 -12 -34
0 -7 11 -10 11 -10 2 0 -18 29 -27 43 -13 15 15 24 14 24 -2 0 -7 -14 -14 -31
-15 -37 -3 -41 -7 -41 -40 0 -33 -30 -42 -51 -15 -13 16 -13 16 -8 1 3 -10 2
-18 -3 -18 -5 0 -9 -15 -9 -32 1 -31 -1 -33 -32 -33 l-33 0 3 -72 c2 -40 8
-76 13 -80 4 -4 5 -2 1 5 -4 6 -2 12 4 12 6 0 8 5 4 12 -4 7 -3 8 5 4 6 -4 9
-12 6 -17 -4 -5 1 -9 10 -9 12 0 14 4 6 19 -6 10 -7 22 -3 26 4 4 -4 4 -17 0
-16 -5 -21 -4 -17 4 4 6 17 10 29 9 18 -2 22 -9 24 -42 3 -46 23 -65 38 -35 9
15 13 17 23 7 7 -7 12 -17 12 -22 0 -6 -4 -4 -10 4 -15 23 -22 5 -9 -24 7 -14
20 -26 31 -26 10 0 18 -5 18 -11 0 -6 -6 -9 -13 -6 -8 3 -14 -4 -15 -20 -1
-19 2 -24 13 -19 8 3 15 0 15 -7 0 -9 2 -9 8 0 13 20 35 -3 37 -38 1 -25 6
-33 23 -34 11 -1 19 2 17 6 -3 4 2 9 10 12 9 4 12 1 8 -9 -3 -7 0 -14 7 -14 6
0 8 -4 5 -10 -9 -14 8 -12 24 3 11 10 12 9 6 -1 -5 -9 -2 -12 10 -10 10 2 20
-4 22 -12 4 -12 3 -12 -5 -1 -8 11 -10 11 -15 0 -4 -12 -7 -11 -16 1 -8 11
-11 12 -11 2 0 -7 -4 -11 -9 -8 -11 7 -8 -21 4 -31 4 -4 5 -2 1 4 -9 16 -1 16
26 2 15 -8 19 -8 14 0 -4 6 -2 11 3 11 10 0 13 -7 10 -26 0 -4 5 -11 13 -15
10 -7 10 -9 -2 -9 -13 0 -13 -1 0 -10 10 -6 11 -10 3 -10 -7 0 -13 -5 -13 -11
0 -8 4 -8 14 0 10 8 16 9 21 1 3 -5 12 -10 18 -10 7 0 6 4 -3 10 -13 8 -13 10
0 10 10 0 7 5 -8 16 -23 16 -30 39 -9 31 6 -2 19 -1 27 4 14 6 16 21 11 72 -1
5 -9 7 -19 5 -9 -1 -23 1 -30 5 -7 5 -12 4 -12 -2 0 -6 -4 -11 -9 -11 -4 0 -6
11 -3 25 2 14 9 25 16 25 6 0 4 5 -4 10 -13 8 -12 11 5 24 23 18 35 20 35 6 0
-14 52 -37 75 -33 14 2 11 -1 -9 -13 -21 -12 -31 -13 -40 -4 -8 8 -6 10 9 5
16 -5 17 -5 5 3 -15 12 -34 6 -25 -8 3 -4 -1 -11 -7 -13 -8 -4 -7 -6 4 -6 9
-1 18 -6 20 -12 2 -7 17 -13 33 -15 24 -2 27 -1 12 7 -9 6 -23 7 -30 4 -6 -4
-3 1 7 9 11 9 25 16 30 16 6 0 5 -4 -2 -8 -16 -11 23 -30 55 -27 16 1 20 -2
13 -10 -5 -6 -6 -16 -2 -21 4 -5 5 -8 3 -7 -7 5 -31 -19 -31 -31 0 -6 4 -5 9
3 7 10 13 11 27 2 17 -9 17 -10 2 -11 -9 0 -20 -5 -23 -10 -9 -14 32 -7 47 8
17 17 26 15 39 -9 8 -15 8 -19 0 -15 -6 4 -11 2 -11 -3 0 -6 -5 -11 -11 -11
-8 0 -7 5 1 15 7 9 10 19 6 22 -4 4 -10 3 -14 -3 -11 -15 -65 -48 -84 -51 -14
-2 -18 4 -18 26 0 16 5 31 12 33 13 5 2 28 -13 28 -6 0 -8 -4 -5 -9 3 -4 -6
-7 -21 -5 -14 1 -36 -4 -48 -12 -12 -8 -25 -11 -30 -7 -4 5 -5 2 -1 -5 5 -7
13 -11 20 -9 12 5 13 -3 18 -77 1 -32 3 -33 35 -30 18 2 33 -1 33 -5 0 -5 15
-8 32 -7 28 1 33 -3 34 -22 1 -12 -3 -25 -9 -29 -6 -4 -7 -1 -2 7 6 9 4 11 -6
5 -12 -8 -12 -6 0 8 8 10 11 20 7 24 -3 3 -6 1 -6 -7 0 -9 -3 -10 -14 -1 -20
17 -41 -11 -27 -36 6 -10 11 -12 11 -5 0 6 5 12 11 12 5 0 8 -4 5 -8 -4 -7 14
-11 67 -13 9 0 17 -5 17 -10 0 -6 5 -7 10 -4 6 4 5 -5 -2 -19 -14 -32 -27 -34
-24 -3 2 16 -2 23 -14 23 -11 0 -16 -8 -15 -25 1 -27 30 -37 54 -18 12 9 13 9
7 0 -4 -7 -2 -14 3 -14 45 -6 58 -3 74 15 13 15 20 17 24 9 2 -7 9 -13 15 -13
6 0 4 7 -3 17 -12 15 -12 16 4 10 24 -9 21 0 -4 14 -12 6 -19 7 -15 1 3 -5 -1
-13 -10 -16 -11 -4 -15 -2 -11 8 8 19 -12 33 -44 30 -23 -2 -25 1 -26 37 0 27
4 39 13 39 8 0 14 5 14 11 0 6 -7 8 -16 5 -14 -6 -15 -4 -4 9 12 15 14 15 23
0 5 -11 4 -22 -5 -32 -11 -15 -11 -16 5 -10 10 4 21 7 23 7 3 0 2 5 -2 12 -4
6 -3 8 3 5 6 -4 13 -16 16 -27 4 -15 -2 -24 -21 -35 -32 -17 -25 -19 14 -5 25
10 26 9 13 -6 -12 -15 -12 -17 1 -12 8 3 23 1 33 -4 10 -5 17 -5 17 1 0 6 12
-1 26 -16 14 -14 28 -22 32 -18 4 4 -1 13 -12 20 -18 13 -18 14 2 12 15 -1 19
-7 18 -30 -1 -15 1 -30 6 -33 4 -3 8 -10 8 -15 0 -6 -4 -8 -9 -5 -5 3 -11 -1
-14 -9 -7 -16 22 -9 36 9 5 7 6 4 3 -7 -4 -12 -2 -17 6 -14 7 2 12 12 10 21
-3 16 -1 16 15 -1 11 -10 16 -19 11 -21 -12 -6 13 -50 35 -59 14 -7 17 -12 9
-17 -7 -4 -12 -2 -12 3 0 6 -5 11 -10 11 -6 0 -8 -11 -6 -24 4 -23 3 -24 -27
-15 -40 11 -40 11 -31 -3 4 -6 3 -8 -3 -5 -6 4 -13 16 -16 27 -4 17 -3 19 8
10 9 -8 15 -8 20 0 3 5 11 10 17 10 7 0 6 -6 -2 -15 -9 -10 -9 -15 -1 -15 6 0
11 3 12 8 0 4 2 15 4 25 3 17 2 17 -22 1 -24 -15 -26 -15 -20 0 4 10 3 15 -3
11 -6 -3 -10 -1 -10 5 0 8 9 10 25 6 18 -5 25 -2 25 8 0 14 -43 16 -57 3 -3
-3 -12 0 -20 8 -8 8 -19 15 -26 15 -6 0 -2 -7 9 -15 19 -14 19 -14 -3 -15 -18
0 -22 5 -21 30 1 17 -2 33 -6 37 -10 10 -50 12 -61 2 -14 -10 -18 -69 -6 -69
6 0 8 -10 6 -21 -3 -12 -2 -19 2 -16 10 11 44 -13 37 -26 -4 -7 -3 -8 1 -4 12
10 15 38 4 31 -12 -7 -11 7 1 26 5 8 10 11 10 5 1 -5 4 -39 7 -74 3 -47 1 -66
-9 -72 -9 -6 -9 -9 -1 -9 6 0 11 -13 11 -29 -1 -27 -3 -29 -29 -24 -36 7 -39
-1 -42 -105 -1 -63 -5 -81 -15 -77 -7 3 -10 0 -7 -5 3 -6 2 -10 -4 -10 -17 0
-23 20 -8 26 7 2 14 12 14 20 0 12 -5 10 -19 -7 -12 -16 -16 -18 -12 -6 3 9 2
17 -3 17 -16 0 -11 -32 7 -50 12 -12 22 -14 33 -9 10 6 18 5 23 -3 4 -7 4 -10
-1 -6 -4 4 -16 3 -26 -2 -12 -7 -20 -7 -24 0 -11 18 -26 10 -23 -13 2 -12 9
-22 17 -22 8 0 16 -7 18 -15 3 -9 1 -11 -4 -5 -4 6 -14 11 -20 12 -10 2 -13
-31 -13 -142 0 -90 4 -145 10 -145 6 0 10 -5 10 -11 0 -5 -4 -7 -10 -4 -5 3
-10 -3 -10 -14 0 -12 6 -21 13 -21 7 0 8 -3 2 -8 -13 -9 -18 -35 -5 -27 5 3
10 1 10 -5 0 -7 5 -10 11 -8 6 2 9 8 7 13 -2 6 -7 9 -12 7 -5 -2 -6 4 -3 11 3
8 0 20 -6 27 -9 10 -9 11 1 6 6 -4 12 -4 12 1 0 4 11 13 25 19 20 10 27 9 37
-5 11 -14 11 -14 -2 -4 -18 13 -43 -2 -48 -29 -2 -12 4 -16 25 -13 23 2 24 1
11 -9 -9 -6 -15 -23 -14 -36 0 -16 -4 -24 -12 -22 -8 1 -11 -2 -7 -8 3 -6 11
-8 17 -4 5 3 9 -2 8 -12 -7 -61 0 -84 30 -99 26 -13 29 -13 24 0 -3 8 -9 13
-13 11 -4 -3 -13 -1 -21 5 -12 7 -11 9 5 9 28 0 40 -11 41 -37 2 -27 -4 -28
-30 -8 -24 18 -36 19 -36 3 0 -6 3 -8 6 -5 4 4 20 -1 35 -10 28 -17 36 -43 30
-103 -1 -12 1 -12 12 2 14 18 57 21 54 4 -3 -15 -31 -43 -39 -39 -5 2 -8 -1
-8 -6 0 -17 18 -13 29 7 10 16 10 16 11 0 0 -10 4 -18 9 -18 5 0 8 -15 7 -32
-1 -30 2 -33 29 -33 17 0 32 -2 35 -5 3 -3 14 -12 24 -20 18 -14 19 -13 13 4
-6 15 -5 17 6 8 8 -7 17 -9 20 -5 4 3 7 1 7 -5 0 -7 -7 -12 -15 -12 -8 0 -15
-5 -15 -11 0 -5 5 -7 10 -4 6 4 10 3 9 -2 -1 -4 1 -15 4 -23 3 -8 7 -26 9 -40
2 -14 10 -25 18 -25 8 0 21 -4 29 -9 9 -6 12 -5 7 2 -3 6 -1 14 5 18 7 4 9 3
6 -2 -3 -6 -2 -16 3 -24 10 -17 50 -21 44 -5 -3 6 2 12 10 12 8 0 13 -8 11
-19 -2 -10 2 -18 8 -18 7 0 6 -4 -3 -10 -8 -5 -12 -11 -10 -13 11 -10 126 -14
143 -5 16 8 17 7 7 -11 -6 -12 -8 -26 -5 -31 3 -5 -3 -14 -12 -20 -16 -10 -15
-10 5 -5 12 4 22 3 22 -2 0 -4 42 -9 93 -10 129 -2 127 -2 127 -14 0 -6 -7 -8
-16 -5 -8 3 -12 2 -9 -3 3 -5 1 -12 -5 -16 -5 -3 -10 -12 -10 -18 0 -7 4 -6
10 3 5 8 18 16 29 16 11 1 18 -3 15 -8 -3 -4 -9 -6 -14 -3 -5 3 -12 1 -15 -5
-7 -12 39 -9 51 3 13 13 27 7 16 -6 -8 -10 -6 -13 9 -13 10 0 19 4 19 8 0 4 6
5 13 3 33 -12 67 -13 67 -2 0 7 4 6 10 -3 5 -8 10 -10 10 -4 0 6 19 10 48 8
55 -2 63 1 55 22 -5 12 -7 12 -19 -3 -13 -16 -14 -15 -8 12 10 43 13 46 35 34
11 -6 27 -8 35 -5 7 3 17 -2 22 -11 8 -13 10 -13 15 0 4 11 22 14 77 13 39 -1
74 3 77 8 3 5 1 6 -5 2 -17 -10 -25 13 -10 31 11 15 11 16 -4 10 -10 -3 -20
-2 -23 4 -4 5 -11 6 -17 3 -7 -4 -8 -2 -4 5 6 9 11 9 22 0 9 -7 14 -8 14 -1 0
6 6 9 13 8 6 -1 12 -4 12 -7 0 -3 7 -14 15 -25 14 -17 13 -18 -1 -7 -15 12
-29 8 -29 -9 0 -4 5 -7 12 -5 16 3 26 -43 16 -73 -6 -15 -6 -26 0 -28 5 -1 8
-17 6 -34 -4 -34 -14 -52 -14 -25 0 10 -4 17 -10 17 -5 0 -10 -6 -10 -14 0
-20 -17 -29 -26 -15 -4 8 -3 9 4 5 7 -4 12 -1 12 7 0 8 -6 17 -13 20 -9 3 -12
-10 -11 -49 0 -30 4 -57 7 -61 4 -3 7 3 7 14 0 30 27 36 45 11 11 -17 12 -24
2 -30 -9 -6 -8 -8 3 -8 9 0 11 -3 5 -8 -26 -19 -9 -37 20 -21 6 3 19 1 30 -5
17 -10 20 -21 20 -88 -1 -46 3 -74 9 -71 5 4 6 1 1 -8 -12 -18 -13 -79 -2 -79
5 0 4 -6 -2 -13 -6 -8 -8 -17 -4 -20 11 -12 43 -8 43 6 1 6 7 1 15 -13 10 -19
10 -27 2 -32 -8 -5 -7 -8 3 -8 12 0 13 -2 1 -9 -24 -15 15 -20 151 -20 98 0
128 3 132 14 3 8 0 16 -7 19 -9 3 -9 5 0 5 7 1 10 8 7 16 -6 15 17 21 55 15
13 -1 13 1 1 15 -10 13 -15 13 -21 3 -6 -9 -9 -9 -9 -1 0 22 17 23 38 2 12
-11 22 -16 22 -11 0 5 -7 15 -15 22 -13 11 -13 15 -3 21 19 12 30 11 22 -3 -5
-7 -3 -8 5 -4 7 5 10 11 7 14 -4 3 1 17 10 31 9 14 11 20 3 14 -15 -15 -33
-17 -25 -4 9 14 -5 42 -16 35 -6 -4 -5 -10 3 -14 10 -7 10 -11 0 -24 -8 -9
-19 -16 -25 -16 -6 0 -4 5 4 10 13 8 13 13 2 31 -8 11 -9 18 -3 14 7 -4 11 3
11 19 0 17 -8 27 -27 35 l-28 11 29 -6 c27 -5 28 -4 15 12 -13 16 -12 16 9 5
13 -7 22 -8 22 -2 0 5 9 8 20 6 17 -3 18 -1 10 15 -7 13 -6 20 3 23 9 4 9 6 0
6 -17 1 -17 21 0 21 9 0 13 -12 11 -37 -1 -21 2 -47 6 -58 8 -23 -1 -57 -15
-56 -6 0 -13 10 -17 23 -7 22 -7 22 -5 -2 1 -14 8 -24 15 -23 6 2 12 -2 12 -8
0 -5 4 -8 9 -5 5 3 15 -2 22 -12 12 -15 12 -16 -1 -5 -13 10 -18 8 -29 -8 -7
-12 -10 -24 -7 -27 3 -3 6 0 6 6 0 7 5 12 10 12 7 0 7 -7 2 -17 -5 -10 -8 -25
-7 -33 1 -8 3 -25 3 -38 1 -15 6 -21 14 -16 11 6 11 4 1 -7 -16 -16 -17 -39
-2 -39 5 0 7 6 3 13 -6 9 -4 9 7 1 15 -12 216 -20 247 -10 14 5 17 13 14 36
-4 25 -1 30 17 30 12 0 19 -4 16 -10 -3 -5 -1 -10 4 -10 6 0 11 8 11 18 0 14
2 15 10 2 7 -11 10 0 10 37 0 41 3 51 14 47 19 -7 41 32 24 42 -6 4 -8 3 -5
-3 4 -6 0 -14 -9 -17 -29 -11 -38 -6 -18 10 10 8 13 13 7 9 -7 -3 -13 -2 -13
3 0 5 15 9 33 9 l33 -1 1 -66 c2 -36 4 -81 6 -100 l4 -35 169 0 c162 0 169 1
170 20 0 11 -5 26 -10 34 -8 11 -8 13 1 8 8 -5 12 11 15 53 1 34 0 64 -3 68
-11 12 10 54 22 46 8 -4 9 -3 5 5 -4 6 -12 9 -18 5 -6 -4 -8 3 -6 17 2 20 8
24 34 22 29 -1 31 1 29 33 -1 30 2 34 24 35 14 1 32 1 39 0 8 -1 12 12 12 37
0 38 1 39 35 37 34 -3 35 -2 31 34 -3 36 -3 37 33 36 30 0 36 3 37 23 3 51 3
52 33 48 32 -4 43 9 36 44 -2 11 2 21 8 22 7 0 17 2 22 3 6 2 17 3 26 4 9 0
16 9 16 19 0 40 4 53 13 47 6 -3 10 -2 10 3 0 5 11 7 25 5 20 -4 24 -2 20 16
-5 28 5 53 19 48 6 -2 22 0 35 4 20 8 22 11 10 26 -10 12 -10 14 -1 9 6 -4 12
-2 12 3 0 6 -6 11 -12 11 -9 0 -8 4 2 10 8 5 29 10 46 10 30 0 32 2 30 32 -1
30 2 33 32 36 32 3 35 8 35 55 0 13 8 17 33 17 34 0 38 5 34 48 -1 19 3 22 34
22 38 0 54 14 37 33 -15 19 0 35 39 39 32 3 35 5 32 33 -1 22 4 35 22 48 18
12 27 14 32 5 4 -6 3 -8 -4 -4 -6 3 -13 2 -17 -4 -3 -6 3 -10 16 -10 16 0 20
5 16 20 -3 11 0 20 6 20 8 0 7 4 -2 9 -11 7 -10 11 5 19 11 5 29 8 41 6 19 -3
22 2 25 34 2 30 7 36 22 34 12 -2 15 1 11 8 -6 9 -2 9 15 0 18 -10 21 -9 18 2
-3 7 -1 21 4 32 7 13 7 16 -1 12 -6 -4 -9 -1 -5 7 3 10 17 14 40 11 25 -2 34
1 31 9 -3 7 -10 11 -16 9 -7 -1 -2 11 10 27 14 19 27 27 37 23 10 -3 13 -1 8
6 -3 6 -1 14 5 18 7 4 9 3 5 -4 -3 -6 -2 -13 3 -16 13 -8 24 11 25 43 1 16 7
26 16 26 8 0 15 5 15 12 0 6 4 15 8 20 5 4 8 3 7 -2 -5 -22 1 -36 11 -29 6 3
9 19 7 35 -3 20 0 29 9 29 8 0 11 4 8 10 -4 7 2 7 19 1 27 -11 38 2 31 38 -2
11 3 22 11 25 8 3 11 13 8 23 -3 10 2 7 10 -7 8 -14 15 -19 16 -11 0 10 3 11
13 2 10 -8 17 -7 25 1 7 7 12 8 12 2 0 -6 12 -10 28 -10 24 1 27 -2 24 -27 -4
-32 14 -60 32 -50 27 17 36 11 36 -27 0 -37 1 -38 34 -36 30 1 35 -2 35 -24 2
-49 4 -59 13 -54 5 4 22 7 38 8 26 2 27 0 22 -36 -5 -38 -5 -38 32 -38 34 0
36 -2 36 -34 0 -30 3 -34 30 -38 16 -3 33 -1 38 4 4 4 6 -10 4 -32 -4 -40 -4
-40 32 -40 34 0 36 -1 36 -35 0 -24 5 -35 15 -35 7 0 19 -8 25 -17 10 -15 11
-15 6 -1 -3 10 2 18 12 20 14 4 16 -2 14 -37 -4 -42 -4 -42 27 -37 36 5 51
-18 30 -45 -10 -12 -10 -15 -1 -9 6 4 12 2 12 -4 0 -6 26 -10 70 -8 l70 2 -3
2225 -2 2226 -31 -1 c-31 -1 -37 8 -21 34 5 7 3 12 -4 12 -7 0 -10 3 -6 6 3 3
11 3 17 -1 8 -5 8 -11 -1 -21 -7 -9 -8 -14 -1 -14 6 0 14 5 17 10 3 6 12 10
18 10 8 0 8 -3 -1 -9 -11 -7 -10 -9 3 -15 12 -4 16 -1 13 17 -2 12 -7 25 -13
29 -5 4 -1025 8 -2265 8 -1363 0 -2249 -4 -2240 -10z m104 -68 c3 -5 -1 -9 -9
-9 -8 0 -12 4 -9 9 3 4 7 8 9 8 2 0 6 -4 9 -8z m68 -5 c3 4 3 3 2 -4 -2 -6 2
-14 9 -17 7 -3 6 -5 -3 -5 -9 -1 -16 -10 -17 -20 -1 -14 4 -19 17 -16 22 4 22
-14 0 -33 -13 -12 -12 -13 7 -9 14 3 20 1 17 -7 -6 -16 -34 -17 -34 -2 0 6 -5
4 -10 -4 -5 -8 -10 -10 -10 -4 0 5 6 16 13 23 10 11 8 12 -12 6 -17 -5 -22 -4
-19 6 3 8 1 21 -3 31 -7 12 -5 15 9 11 12 -3 18 2 19 16 2 18 -1 20 -20 10
-20 -9 -20 -9 -5 4 10 8 14 18 10 23 -4 4 0 3 10 -4 9 -7 18 -9 20 -5z m94
-146 c2 -6 0 -7 -3 -1 -2 5 -9 7 -14 4 -6 -3 -5 -11 2 -20 6 -8 8 -14 3 -14
-5 0 -2 -5 6 -10 12 -7 10 -9 -8 -7 -12 0 -22 5 -22 9 0 4 -9 5 -19 3 -17 -3
-18 0 -10 25 8 23 16 28 37 26 14 -2 27 -8 28 -15z m58 -9 c3 -5 -1 -9 -9 -9
-8 0 -12 4 -9 9 3 4 7 8 9 8 2 0 6 -4 9 -8z m-26 -43 c-10 -5 -18 -15 -18 -21
0 -7 4 -7 13 0 10 8 16 6 25 -9 7 -11 16 -17 21 -15 5 3 19 -3 31 -14 13 -11
19 -20 15 -20 -5 0 -17 7 -27 17 -10 9 -18 12 -18 6 0 -5 8 -18 19 -27 17 -15
20 -15 34 -2 13 14 15 13 13 -9 0 -14 -5 -20 -10 -15 -10 10 -36 2 -36 -12 0
-6 6 -8 13 -5 8 3 20 1 28 -5 12 -8 12 -9 -1 -5 -8 2 -24 0 -35 -6 -11 -5 -17
-6 -13 -2 4 4 3 17 -3 28 -8 15 -8 18 1 12 8 -5 11 -3 8 6 -3 8 -11 13 -17 11
-7 -1 -10 1 -7 6 7 11 -22 52 -36 52 -6 0 -4 -8 5 -18 15 -16 15 -18 -2 -18
-12 0 -17 5 -13 15 3 8 1 12 -5 8 -13 -8 -13 24 0 41 5 6 15 12 21 12 6 0 3
-5 -6 -11z m43 -13 c5 3 9 0 9 -6 0 -15 -23 -7 -26 8 -1 7 0 8 3 2 2 -5 9 -8
14 -4z m49 4 c8 -5 11 -10 5 -10 -5 0 -17 5 -25 10 -8 5 -10 10 -5 10 6 0 17
-5 25 -10z m7 -37 c0 -10 -4 -10 -16 -1 -9 7 -18 13 -20 15 -2 1 5 1 16 0 11
0 20 -7 20 -14z m77 -104 c-3 -5 -10 -7 -15 -3 -5 3 -7 10 -3 15 3 5 10 7 15
3 5 -3 7 -10 3 -15z m-16 -28 c-6 -2 -5 -7 3 -12 7 -4 10 -11 6 -16 -9 -9 -28
17 -21 29 6 10 -10 11 -19 1 -4 -3 -2 -12 4 -19 10 -12 7 -12 -30 -5 -2 1 2 7
8 14 6 8 8 17 5 20 -3 3 -3 10 1 16 4 7 14 5 30 -6 13 -10 19 -20 13 -22z m50
-39 c13 11 14 11 7 -1 -6 -11 -4 -13 8 -8 26 10 30 -11 5 -25 -31 -17 -55 -18
-55 -2 0 7 5 11 10 7 5 -3 7 5 3 18 -3 13 -3 18 0 11 5 -10 9 -10 22 0z m79
-37 c0 -8 -4 -12 -9 -9 -5 3 -6 10 -3 15 9 13 12 11 12 -6z m-42 -15 c3 -5 -1
-10 -10 -10 -9 0 -13 5 -10 10 3 6 8 10 10 10 2 0 7 -4 10 -10z m57 -14 c7 4
10 4 6 -1 -4 -4 -3 -14 4 -22 9 -11 7 -12 -8 -7 -18 7 -18 6 1 -17 19 -22 19
-23 1 -9 -18 14 -19 13 -13 -3 6 -15 4 -16 -13 -7 -11 6 -20 8 -20 5 0 -4 -5
-3 -11 1 -8 4 -8 9 0 17 7 7 7 14 0 24 -8 9 -8 13 0 13 6 0 11 -5 11 -11 0 -5
5 -7 10 -4 8 5 7 12 -2 23 -12 15 -11 16 4 4 9 -8 23 -10 30 -6z m33 -76 c-3
-5 -1 -10 4 -10 6 0 11 6 12 13 0 8 2 8 6 -2 5 -11 7 -11 15 0 8 11 9 11 5 -2
-3 -9 0 -22 6 -28 7 -7 8 -12 2 -11 -21 4 -36 0 -30 -10 3 -5 13 -7 23 -4 14
5 14 4 2 -4 -8 -6 -19 -7 -25 -2 -10 8 -15 10 -37 10 -9 0 -9 3 -3 8 6 4 10
14 10 22 -1 17 4 30 11 30 3 0 2 -4 -1 -10z m75 -79 c0 -5 -3 -11 -7 -14 -5
-2 -3 -3 3 -1 5 1 21 -6 33 -16 18 -13 21 -19 11 -25 -8 -5 -11 -4 -7 2 4 6 0
14 -9 17 -11 4 -15 2 -11 -7 6 -15 -29 -21 -38 -6 -3 5 1 6 9 3 9 -3 16 -2 16
4 0 5 -7 12 -15 16 -8 3 -12 12 -9 21 7 16 24 21 24 6z m43 -8 c-6 -16 -25
-13 -31 5 -2 6 6 10 16 9 12 -1 18 -6 15 -14z m67 -53 c12 -8 12 -10 1 -10
-11 0 -9 -5 5 -22 15 -19 16 -20 2 -9 -19 14 -25 2 -8 -15 6 -6 5 -15 -1 -24
-9 -13 -10 -12 -5 2 7 22 -10 33 -18 12 -3 -8 1 -25 9 -38 14 -21 13 -22 -10
-22 -13 0 -22 2 -20 5 3 2 -3 11 -13 19 -11 9 -8 9 11 -2 15 -9 27 -12 27 -7
0 6 -6 14 -14 18 -8 4 -16 15 -18 23 -2 8 -7 18 -13 22 -6 5 -5 8 3 8 7 0 10
4 7 10 -3 6 1 7 10 4 9 -4 15 -3 14 2 -6 33 5 41 31 24z m-137 -20 c3 -11 1
-20 -4 -20 -5 0 -9 2 -9 4 0 2 -3 11 -6 20 -3 9 -2 16 4 16 5 0 12 -9 15 -20z
m182 -8 c-3 -3 -11 0 -18 7 -9 10 -8 11 6 5 10 -3 15 -9 12 -12z m-140 -121
c3 -6 -5 -15 -17 -21 -21 -10 -21 -10 -6 3 10 8 15 17 11 20 -3 4 -4 7 0 7 3
0 8 -4 12 -9z m15 -31 c-8 -5 -19 -10 -25 -10 -5 0 -3 5 5 10 8 5 20 10 25 10
6 0 3 -5 -5 -10z m-68 -38 c3 7 5 -2 5 -19 0 -18 -1 -32 -2 -30 0 1 -9 16 -20
32 -14 23 -15 27 -3 17 13 -10 17 -10 20 0z m-18 -51 c-6 -6 -24 19 -24 34 1
6 7 1 15 -9 8 -11 12 -22 9 -25z m-49 -45 c-1 -21 -6 -32 -18 -34 -9 -2 -17 2
-17 10 0 10 -3 9 -11 -2 -10 -13 -10 -13 -6 0 3 8 9 24 13 34 6 15 4 17 -6 11
-8 -5 -11 -4 -7 1 3 6 16 10 29 10 20 0 24 -5 23 -30z m3825 18 c0 -8 -19 -13
-24 -6 -3 5 1 9 9 9 8 0 15 -2 15 -3z m-3943 -96 c-3 -8 -6 -5 -6 6 -1 11 2
17 5 13 3 -3 4 -12 1 -19z m36 5 c-4 -10 -2 -14 5 -9 6 3 13 2 16 -3 4 -5 -2
-8 -11 -7 -19 3 -32 36 -14 36 6 0 7 -7 4 -17z m-91 -81 c-7 -2 -9 -9 -5 -15
3 -7 2 -8 -2 -4 -16 14 -14 36 3 29 10 -4 12 -7 4 -10z m38 -6 c0 -3 -4 -8
-10 -11 -5 -3 -10 -1 -10 4 0 6 5 11 10 11 6 0 10 -2 10 -4z m-109 -25 c7 12
9 12 9 0 0 -10 4 -11 13 -3 9 8 12 2 13 -26 1 -21 -1 -29 -3 -19 -5 21 -23 23
-23 2 0 -18 -9 -19 -30 -4 -12 9 -12 10 4 5 13 -5 17 -2 12 9 -8 20 -14 42 -8
31 2 -4 8 -2 13 5z m-31 -81 c0 -5 -4 -10 -10 -10 -5 0 -10 5 -10 10 0 6 5 10
10 10 6 0 10 -4 10 -10z m-20 -20 c8 -5 11 -10 5 -10 -5 0 -17 5 -25 10 -8 5
-10 10 -5 10 6 0 17 -5 25 -10z m-20 -20 c0 -5 -2 -10 -4 -10 -3 0 -8 5 -11
10 -3 6 -1 10 4 10 6 0 11 -4 11 -10z m-50 -34 c0 -2 -9 -6 -20 -9 -11 -3 -20
-1 -20 4 0 5 9 9 20 9 11 0 20 -2 20 -4z m14 -32 c5 -14 4 -15 -9 -4 -17 14
-19 20 -6 20 5 0 12 -7 15 -16z m-29 -4 c3 -6 -1 -7 -9 -4 -18 7 -21 14 -7 14
6 0 13 -4 16 -10z m4205 -4 c0 -3 -4 -8 -10 -11 -5 -3 -10 -1 -10 4 0 6 5 11
10 11 6 0 10 -2 10 -4z m-4246 -22 c6 2 8 1 4 -1 -3 -2 -4 -16 -2 -31 2 -15 1
-22 -3 -17 -11 13 -47 19 -39 6 4 -5 2 -12 -3 -15 -5 -4 -8 2 -6 11 1 10 -3
24 -9 32 -9 12 -8 12 11 3 14 -8 24 -9 28 -2 3 5 1 10 -4 10 -6 0 -11 5 -11
12 0 9 3 9 11 1 6 -6 17 -10 23 -9z m-67 -69 c0 -8 -4 -12 -9 -9 -5 3 -6 10
-3 15 9 13 12 11 12 -6z m-39 -23 c-11 -13 -10 -14 8 -8 15 4 23 2 27 -8 4
-11 0 -14 -15 -11 -26 5 -31 11 -33 34 -1 12 3 17 12 14 11 -4 11 -8 1 -21z
m-48 -42 c0 -5 -2 -10 -4 -10 -3 0 -8 5 -11 10 -3 6 -1 10 4 10 6 0 11 -4 11
-10z m5 -28 c15 -11 16 -29 0 -29 -7 0 -11 6 -8 14 3 7 0 13 -6 13 -6 0 -11
-7 -11 -17 0 -9 -3 -14 -6 -10 -8 8 3 37 13 37 4 0 13 -4 18 -8z m-56 -48
c-10 -13 -10 -17 2 -25 9 -6 10 -9 2 -9 -7 0 -10 -7 -7 -17 5 -15 4 -16 -5 -3
-10 13 -12 13 -21 0 -8 -12 -10 -12 -10 -1 0 11 -3 11 -15 1 -9 -7 -15 -8 -15
-2 0 12 29 26 47 23 8 -1 10 4 7 13 -4 11 -11 13 -23 6 -13 -6 -18 -5 -18 4 0
8 10 12 24 10 13 -1 23 2 23 7 0 5 5 9 11 9 8 0 7 -5 -2 -16z m-69 -79 c5 -3
10 -12 9 -18 0 -9 -2 -8 -6 1 -2 6 -9 10 -14 6 -5 -3 -9 0 -9 6 0 6 -4 9 -8 6
-4 -2 -14 0 -22 5 -11 7 -7 8 12 5 15 -3 32 -7 38 -11z m-20 -30 c5 3 11 1 14
-3 7 -12 -41 -9 -51 2 -4 5 -2 6 5 2 7 -4 12 -2 13 6 0 10 2 10 6 0 2 -6 9
-10 13 -7z m-64 -50 c-17 -13 -23 -30 -7 -20 5 3 12 1 15 -4 4 -5 -2 -8 -11
-7 -10 2 -18 8 -17 14 2 29 5 33 14 27 6 -3 10 2 11 12 0 13 2 14 6 4 3 -8 -2
-20 -11 -26z m-101 -65 c-5 -16 -3 -19 12 -14 15 5 15 4 3 -5 -19 -13 -33 0
-24 22 9 24 17 21 9 -3z m40 10 c-3 -5 -11 -10 -16 -10 -6 0 -7 5 -4 10 3 6
11 10 16 10 6 0 7 -4 4 -10z m8 -25 c-3 -9 -8 -14 -10 -11 -3 3 -2 9 2 15 9
16 15 13 8 -4z m-23 -25 c0 -5 -4 -10 -10 -10 -5 0 -10 5 -10 10 0 6 5 10 10
10 6 0 10 -4 10 -10z m-73 -25 c4 -4 3 -5 -3 -2 -12 7 -27 -17 -17 -26 8 -9
42 26 36 36 -4 6 -1 7 6 2 9 -5 7 -13 -10 -31 -12 -13 -25 -22 -27 -19 -3 3
-11 -4 -18 -14 -13 -18 -59 -38 -48 -20 3 5 12 9 19 9 18 0 33 28 30 56 -1 22
17 27 32 9z m26 -40 c-3 -9 -8 -14 -10 -11 -3 3 -2 9 2 15 9 16 15 13 8 -4z
m-103 -59 c0 -2 -7 -7 -16 -10 -8 -3 -12 -2 -9 4 6 10 25 14 25 6z m30 -10 c0
-3 -4 -8 -10 -11 -5 -3 -10 -1 -10 4 0 6 5 11 10 11 6 0 10 -2 10 -4z m-68
-43 c-6 -3 -10 -8 -7 -13 3 -4 -1 -12 -8 -17 -8 -7 -18 -3 -31 10 -15 15 -16
19 -4 14 9 -3 24 0 35 8 10 7 20 11 23 8 3 -3 -1 -8 -8 -10z m-121 -70 c-12
-20 -14 -14 -5 12 4 9 9 14 11 11 3 -2 0 -13 -6 -23z m53 -34 c-9 -15 -24 0
-17 19 4 13 0 11 -16 -5 -27 -28 -35 -29 -19 -3 7 11 16 20 21 20 4 0 5 6 2
13 -4 6 3 1 14 -12 12 -12 18 -27 15 -32z m-84 -24 c-14 -17 -36 -20 -44 -6
-4 5 2 7 13 4 10 -3 22 0 25 6 4 6 10 11 13 11 3 0 0 -7 -7 -15z m13 -22 c-7
-2 -13 -12 -13 -21 0 -15 -2 -15 -10 -2 -9 15 4 30 25 29 6 0 4 -3 -2 -6z
m-46 -25 c-3 -8 -6 -5 -6 6 -1 11 2 17 5 13 3 -3 4 -12 1 -19z m-62 -41 c0
-19 -5 -34 -11 -34 -6 0 -11 6 -11 14 0 7 5 13 10 13 5 0 4 6 -2 14 -9 11 -9
15 1 19 7 3 13 6 13 6 0 1 0 -14 0 -32z m38 16 c-6 -2 -9 -15 -7 -29 3 -15 1
-23 -5 -20 -5 4 -9 16 -8 29 1 22 17 41 27 30 3 -3 0 -8 -7 -10z m-81 -67 c6
4 8 2 4 -4 -3 -5 -1 -12 5 -14 14 -5 2 -35 -15 -35 -7 0 -13 5 -13 11 0 6 -2
16 -3 21 -4 18 1 41 7 27 2 -6 10 -9 15 -6z m-39 -31 c4 -8 3 -16 -1 -19 -4
-3 -9 4 -9 15 -2 23 3 25 10 4z m-40 -34 c21 10 21 9 3 -5 -20 -16 -37 -13
-35 7 0 9 2 9 6 0 3 -10 10 -10 26 -2z m22 -34 c0 -13 -5 -24 -12 -24 -6 0 -9
6 -6 14 4 9 0 11 -11 7 -9 -3 -14 -9 -11 -13 2 -4 -1 -8 -8 -8 -7 0 -13 8 -13
18 0 9 6 15 13 12 8 -3 48 10 48 17 0 0 0 -10 0 -23z m-105 -51 c-7 -7 -13 -7
-20 0 -6 6 -3 10 10 10 13 0 16 -4 10 -10z m35 -16 c3 -5 0 -7 -9 -4 -11 4
-14 0 -11 -15 2 -11 -1 -24 -7 -27 -7 -4 -8 -2 -4 4 5 8 -1 12 -16 13 -23 1
-23 1 2 9 14 4 21 8 17 9 -11 1 2 21 13 21 5 0 12 -4 15 -10z m-60 -59 c3 -5
-4 -13 -16 -16 -17 -6 -19 -9 -8 -16 10 -6 8 -8 -7 -7 -11 1 -26 8 -34 16 -11
12 -9 13 11 7 21 -7 22 -6 10 8 -7 9 -18 14 -24 10 -6 -4 -7 -1 -3 6 6 9 13 8
27 -5 11 -9 22 -14 26 -11 4 4 -2 14 -13 23 -18 15 -18 15 3 4 12 -5 24 -14
28 -19z m52 -13 c-3 -8 -6 -5 -6 6 -1 11 2 17 5 13 3 -3 4 -12 1 -19z m-32 -7
c-3 -6 -11 -11 -16 -11 -5 0 -4 6 3 14 14 16 24 13 13 -3z m25 -21 c0 -5 5
-10 11 -10 5 0 7 6 3 13 -4 6 -4 9 1 5 5 -5 9 -21 9 -38 1 -29 -16 -46 -35
-34 -5 3 -9 1 -9 -5 0 -6 -7 -8 -15 -5 -9 4 -14 18 -13 39 1 30 4 33 19 24 11
-6 16 -16 13 -27 -5 -14 -4 -15 5 -2 6 9 7 18 1 24 -13 13 -13 26 0 26 6 0 10
-4 10 -10z m70 -32 c11 -13 17 -31 14 -40 -3 -10 -2 -23 3 -30 10 -17 13 -38
5 -39 -67 -8 -72 -5 -72 33 0 20 5 40 10 43 6 4 10 12 9 18 -5 42 5 46 31 15z
m78 -73 c-5 -11 -19 -21 -31 -22 -12 0 -16 1 -9 4 6 3 10 9 6 14 -8 14 4 28
25 26 15 -1 17 -5 9 -22z m8 -44 c14 -1 6 -49 -9 -58 -6 -4 -21 -7 -34 -8 -19
-1 -22 3 -19 25 2 14 5 30 5 36 1 10 10 11 57 5z m-144 -19 c-10 -3 -10 -7 0
-20 10 -14 10 -15 -2 -4 -17 14 -34 16 -25 2 4 -6 -1 -7 -11 -3 -14 5 -14 7 5
18 12 6 18 14 14 19 -4 4 1 4 12 0 12 -5 14 -9 7 -12z m211 6 c-2 -5 -10 -8
-18 -8 -8 0 -16 3 -18 8 -3 4 5 7 18 7 13 0 21 -3 18 -7z m-147 -87 c-4 -6
-17 -16 -29 -21 -21 -11 -21 -11 -3 4 17 14 16 20 -5 18 -3 -1 -6 5 -6 13 0 7
7 11 15 7 11 -4 13 -1 7 9 -5 9 -2 8 10 -3 9 -9 14 -21 11 -27z m305 -181 c6
0 7 6 3 13 -6 9 -4 9 8 -1 8 -7 23 -9 33 -6 14 6 16 1 13 -31 -2 -21 -10 -41
-17 -43 -10 -3 -11 0 -5 9 7 12 5 12 -9 1 -22 -18 -40 -5 -34 24 2 14 0 27 -4
30 -5 3 -9 11 -8 17 0 9 2 9 6 0 2 -7 9 -13 14 -13z m-88 -20 c9 -10 9 -11 0
-6 -7 4 -13 3 -13 -3 0 -5 5 -11 12 -13 7 -3 5 -7 -6 -11 -10 -4 -15 -3 -11 3
3 6 1 10 -4 10 -6 0 -11 -5 -11 -12 0 -19 -11 -2 -16 26 -4 22 -1 25 16 23 11
-2 26 -9 33 -17z m202 12 c-3 -3 0 -11 7 -19 8 -11 7 -12 -5 -7 -21 7 -29 31
-11 31 8 0 12 -3 9 -5z m45 -77 c7 -9 8 -15 2 -15 -5 0 -12 7 -16 15 -3 8 -4
15 -2 15 2 0 9 -7 16 -15z m28 -10 c-3 -3 -9 2 -12 12 -6 14 -5 15 5 6 7 -7
10 -15 7 -18z m-234 -4 c3 -5 -1 -11 -9 -14 -9 -4 -12 -1 -8 9 6 16 10 17 17
5z m226 -21 c0 -5 -2 -10 -4 -10 -3 0 -8 5 -11 10 -3 6 -1 10 4 10 6 0 11 -4
11 -10z m-165 -59 c3 -5 2 -12 -3 -15 -5 -3 -9 1 -9 9 0 17 3 19 12 6z m150
-120 c-3 -6 -11 -8 -17 -5 -6 4 -5 9 3 15 16 10 23 4 14 -10z m235 3 c0 -2 -7
-4 -15 -4 -8 0 -15 4 -15 10 0 5 7 7 15 4 8 -4 15 -8 15 -10z m0 -38 c0 -3 -4
-8 -10 -11 -5 -3 -10 -1 -10 4 0 6 5 11 10 11 6 0 10 -2 10 -4z m-74 -131 c2
-28 0 -32 -10 -22 -53 53 -52 51 -33 44 11 -4 20 -1 24 9 8 22 15 10 19 -31z
m-42 -11 c3 -8 2 -12 -4 -9 -6 3 -10 10 -10 16 0 14 7 11 14 -7z m-89 -53 c3
-5 2 -12 -3 -15 -5 -3 -9 1 -9 9 0 17 3 19 12 6z m-34 -18 c13 -16 12 -17 -3
-4 -17 13 -22 21 -14 21 2 0 10 -8 17 -17z m92 -40 c-4 -11 -2 -14 5 -9 18 11
14 0 -5 -15 -9 -8 -14 -9 -10 -2 8 12 -17 12 -30 -1 -4 -4 -2 -6 6 -4 7 2 16
-3 18 -10 3 -7 -1 -11 -8 -10 -9 2 -13 -15 -14 -59 0 -34 2 -60 6 -57 4 2 5
-5 2 -15 -3 -11 -12 -22 -20 -25 -9 -4 -11 -2 -6 7 10 17 10 107 -1 107 -5 0
-4 6 1 13 5 6 9 26 8 44 -1 18 2 30 6 27 5 -3 9 0 9 6 0 6 4 9 9 5 5 -3 12 -1
16 4 3 6 -5 8 -20 5 -14 -2 -25 0 -25 6 0 6 4 9 9 5 5 -3 13 -1 16 5 10 17 35
-8 28 -27z m3945 -18 c0 -30 -7 -28 -13 4 -2 11 0 21 4 21 5 0 9 -11 9 -25z
m62 -5 c0 -5 -2 -10 -4 -10 -3 0 -8 5 -11 10 -3 6 -1 10 4 10 6 0 11 -4 11
-10z m32 3 c-6 -2 -9 -10 -6 -15 4 -7 2 -8 -5 -4 -13 9 -5 26 12 25 9 0 8 -2
-1 -6z m-4028 -28 c-4 -8 -11 -15 -16 -15 -6 0 -5 6 2 15 7 8 14 15 16 15 2 0
1 -7 -2 -15z m-6 -36 c-15 -10 -35 -1 -35 15 0 10 6 10 23 2 14 -7 18 -13 12
-17z m3865 16 c-3 -9 -8 -14 -10 -11 -3 3 -2 9 2 15 9 16 15 13 8 -4z m35 -20
c9 -18 8 -21 -14 -21 -13 0 -24 4 -24 9 0 5 7 6 16 3 12 -5 14 -1 8 17 -7 25
-2 22 14 -8z m215 10 c-3 -9 -8 -14 -10 -11 -3 3 -2 9 2 15 9 16 15 13 8 -4z
m-4119 -38 c-5 -15 -3 -18 7 -12 11 6 11 5 2 -5 -8 -9 -9 -20 -2 -39 6 -14 7
-22 3 -18 -4 4 -13 2 -20 -4 -10 -8 -12 -6 -9 10 2 11 0 23 -4 25 -4 3 -7 18
-5 33 2 33 0 30 19 30 11 0 13 -6 9 -20z m3945 -4 c-3 -19 2 -23 19 -14 14 7
19 6 19 -4 0 -7 -7 -11 -15 -7 -10 3 -13 1 -8 -6 4 -7 3 -12 -1 -12 -12 0 -33
37 -26 44 8 8 13 8 12 -1z m-146 -18 c-3 -9 -8 -14 -10 -11 -3 3 -2 9 2 15 9
16 15 13 8 -4z m-3933 -5 c0 -5 -5 -10 -11 -10 -5 0 -7 5 -4 10 3 6 8 10 11
10 2 0 4 -4 4 -10z m3957 -15 c0 -8 -4 -15 -9 -15 -10 0 -11 14 -1 23 9 10 10
9 10 -8z m-3953 -14 c3 -5 -2 -15 -12 -22 -15 -12 -16 -12 -5 2 7 9 10 19 6
22 -3 4 -4 7 0 7 3 0 8 -4 11 -9z m4272 -27 c1 -9 0 -13 -4 -10 -3 4 -7 14 -8
22 -1 9 0 13 4 10 3 -4 7 -14 8 -22z m-369 -26 c-3 -8 -6 -5 -6 6 -1 11 2 17
5 13 3 -3 4 -12 1 -19z m-3907 2 c0 -5 -5 -10 -11 -10 -5 0 -7 5 -4 10 3 6 8
10 11 10 2 0 4 -4 4 -10z m132 -16 c9 -18 8 -18 -5 -2 -8 10 -16 15 -19 12 -4
-3 -9 -1 -12 4 -3 6 1 9 10 8 9 -1 21 -11 26 -22z m4263 17 c3 -5 2 -12 -3
-15 -5 -3 -9 1 -9 9 0 17 3 19 12 6z m-4300 -32 c-4 -5 -14 -8 -23 -8 -15 1
-15 2 1 6 9 2 14 9 11 15 -4 7 -2 8 5 4 6 -4 9 -12 6 -17z m4225 7 c-7 -7 -13
-7 -20 0 -6 6 -3 10 10 10 13 0 16 -4 10 -10z m45 4 c3 -6 -1 -7 -9 -4 -18 7
-21 14 -7 14 6 0 13 -4 16 -10z m-4277 -33 c14 5 14 3 -2 -9 -12 -9 -16 -20
-11 -28 5 -8 4 -11 -2 -7 -6 4 -14 0 -17 -9 -4 -11 -2 -15 8 -11 7 3 19 0 26
-6 10 -10 12 -8 7 6 -7 17 -6 17 23 0 17 -10 27 -19 22 -21 -5 -1 -6 -20 -2
-42 4 -22 4 -37 0 -35 -13 8 -22 -27 -10 -39 16 -16 12 -30 -5 -16 -8 6 -20 8
-26 4 -9 -5 -10 -2 -6 9 4 10 1 29 -5 43 -10 20 -9 27 2 34 8 5 17 7 21 4 14
-8 21 18 9 29 -10 9 -12 8 -7 -5 4 -11 1 -15 -11 -13 -9 1 -24 -3 -32 -9 -13
-10 -13 -9 -1 7 11 13 11 17 1 17 -8 0 -10 3 -7 6 4 4 13 1 22 -6 8 -7 15 -8
15 -3 0 16 -22 32 -36 26 -8 -3 -16 2 -20 10 -3 9 -14 14 -24 12 -18 -3 -21
10 -7 32 4 6 6 17 4 25 -2 7 -2 10 0 6 9 -16 25 -7 18 10 -5 13 -1 11 14 -5
13 -14 28 -20 39 -16z m3706 -9 c-5 -8 -1 -9 10 -5 11 4 15 3 11 -4 -10 -14
-28 -6 -31 14 -1 9 2 15 7 11 5 -3 6 -10 3 -16z m139 -13 c-3 -9 -8 -14 -10
-11 -3 3 -2 9 2 15 9 16 15 13 8 -4z m482 -33 c-3 -3 -11 0 -18 7 -9 10 -8 11
6 5 10 -3 15 -9 12 -12z m-658 -22 c1 -11 -2 -20 -7 -20 -6 0 -7 17 -1 38 3 8
7 -1 8 -18z m98 1 c3 -5 2 -12 -3 -15 -5 -3 -9 1 -9 9 0 17 3 19 12 6z m-3807
-24 c2 -9 -1 -17 -7 -17 -6 0 -7 8 -4 18 6 15 5 15 -10 3 -15 -12 -17 -12 -11
3 8 20 28 16 32 -7z m3772 -31 c0 -2 -8 -10 -17 -17 -16 -13 -17 -12 -4 4 13
16 21 21 21 13z m718 -21 c-3 -3 -9 2 -12 12 -6 14 -5 15 5 6 7 -7 10 -15 7
-18z m-4541 -5 c-1 -21 -10 -18 -13 5 -1 8 2 15 6 15 5 0 8 -9 7 -20z m3660
-19 c0 -11 -5 -18 -9 -15 -4 3 -5 11 -1 19 7 21 12 19 10 -4z m867 10 c4 -5
-3 -7 -14 -4 -23 6 -26 13 -6 13 8 0 17 -4 20 -9z m-4436 -26 c-3 -3 -9 2 -12
12 -6 14 -5 15 5 6 7 -7 10 -15 7 -18z m4472 4 c0 -5 -4 -9 -8 -9 -5 0 -9 7
-9 15 0 8 4 12 9 9 4 -3 8 -9 8 -15z m-4415 1 c3 -5 1 -10 -4 -10 -6 0 -11 5
-11 10 0 6 2 10 4 10 3 0 8 -4 11 -10z m4365 4 c0 -8 -19 -13 -24 -6 -3 5 1 9
9 9 8 0 15 -2 15 -3z m-4406 -39 c6 -1 19 -5 29 -9 15 -7 16 -11 5 -17 -7 -5
-20 -9 -28 -9 -13 0 -13 2 0 11 13 9 12 10 -2 5 -10 -3 -18 -1 -18 5 0 6 -6 7
-12 3 -7 -4 -10 -4 -6 1 4 4 2 15 -5 24 -11 14 -10 15 7 1 10 -8 24 -15 30
-15z m4500 17 c2 -4 -4 -8 -14 -8 -10 0 -16 4 -14 8 3 4 9 8 14 8 5 0 11 -4
14 -8z m-987 -29 c0 -9 -4 -10 -12 -3 -7 5 -15 7 -18 3 -4 -3 -7 -1 -7 5 0 6
8 10 18 9 10 0 19 -7 19 -14z m947 -9 c3 -8 2 -12 -4 -9 -6 3 -10 10 -10 16 0
14 7 11 14 -7z m-4436 -20 c17 6 19 2 16 -38 -3 -40 -2 -44 16 -41 11 2 20 -1
20 -7 0 -5 -6 -8 -14 -5 -7 3 -23 -1 -34 -8 -10 -8 -22 -11 -26 -8 -3 3 -6 0
-6 -9 0 -19 27 -19 35 -1 3 9 12 12 24 8 13 -4 24 1 35 16 15 22 15 22 11 -10
-2 -18 1 -42 8 -52 9 -14 9 -21 0 -30 -18 -18 -5 -36 23 -33 20 2 24 -1 19
-17 -4 -11 -2 -19 5 -19 6 0 9 4 6 8 -2 4 -1 14 5 22 6 11 9 7 9 -16 0 -36 17
-54 45 -50 25 4 37 -2 29 -15 -4 -6 -11 -6 -20 2 -15 13 -17 9 -8 -15 3 -9 10
-13 15 -10 5 3 6 -2 3 -10 -4 -9 -1 -16 6 -16 7 0 10 -7 6 -17 -5 -15 -4 -15
9 1 8 11 15 14 15 8 0 -13 21 -12 31 1 3 5 9 2 12 -7 4 -9 3 -15 -1 -15 -19 3
-25 -2 -12 -11 12 -8 11 -13 -8 -39 -27 -36 -30 -53 -4 -20 14 16 31 23 60 24
37 2 40 0 31 -17 -12 -22 -21 -24 -12 -2 4 11 2 15 -6 13 -19 -7 -16 -23 8
-35 11 -6 18 -13 15 -17 -3 -3 5 -11 18 -18 22 -12 22 -11 8 6 -14 17 -14 17
6 7 12 -6 24 -8 28 -5 3 3 6 2 6 -4 0 -6 8 -10 18 -10 9 0 28 -5 42 -11 15 -6
19 -11 9 -11 -9 -1 -19 2 -23 6 -3 4 -13 8 -21 9 -15 2 -18 -5 -16 -41 0 -11
-2 -15 -5 -8 -3 7 -14 9 -34 3 -21 -6 -30 -5 -34 6 -4 10 -2 12 6 8 7 -5 8 -3
2 7 -4 8 -9 20 -11 28 -1 7 -6 18 -12 24 -7 7 -9 4 -6 -12 4 -23 4 -23 -15 -6
-11 10 -20 23 -20 29 0 6 5 4 10 -4 5 -8 10 -10 10 -5 0 6 -9 21 -20 35 -15
18 -18 20 -13 6 4 -14 3 -17 -6 -12 -8 5 -14 1 -18 -13 -3 -12 -13 -21 -25
-21 -10 0 -17 4 -13 9 3 5 1 12 -5 16 -5 3 5 19 23 35 29 27 30 29 9 25 -19
-3 -22 -2 -12 10 6 8 7 16 2 19 -16 10 -23 -25 -10 -42 11 -14 10 -15 -7 -7
-11 4 -32 8 -47 8 -25 -1 -45 27 -29 42 3 4 7 11 7 16 1 5 2 12 3 15 0 4 8 1
16 -6 8 -7 12 -17 8 -23 -3 -6 -1 -7 6 -3 6 4 8 13 4 19 -8 12 -9 17 -12 37 0
6 -10 1 -21 -10 -11 -11 -33 -20 -49 -20 -20 0 -30 6 -34 20 -3 11 -2 20 2 20
4 0 5 16 3 36 -3 23 0 40 9 46 11 8 11 9 -3 5 -9 -3 -19 -3 -22 1 -4 3 -14 7
-22 8 -35 5 -41 12 -36 43 4 28 12 35 34 33 3 -1 9 5 12 13 7 18 -5 20 -22 3
-9 -9 -12 -9 -12 0 0 7 -5 12 -11 12 -5 0 -7 -4 -4 -10 3 -5 3 -10 -2 -11 -56
-7 -59 -6 -57 20 2 35 2 35 19 21 8 -7 15 -11 16 -9 7 36 7 39 -5 30 -18 -15
-34 0 -36 34 -4 53 -2 59 15 45 8 -6 23 -9 33 -6z m4512 -26 c0 -4 -5 -8 -12
-8 -6 0 -8 3 -5 7 4 3 -1 16 -10 27 -18 21 -18 21 5 2 12 -11 22 -23 22 -28z
m-1081 -11 c-2 -1 -13 -9 -24 -17 -19 -14 -19 -14 -6 3 7 9 18 17 24 17 6 0 8
-1 6 -3z m1081 -17 c0 -5 -5 -10 -11 -10 -5 0 -7 5 -4 10 3 6 8 10 11 10 2 0
4 -4 4 -10z m40 6 c0 -3 -4 -8 -10 -11 -5 -3 -10 -1 -10 4 0 6 5 11 10 11 6 0
10 -2 10 -4z m15 -36 c3 -5 1 -10 -4 -10 -6 0 -11 5 -11 10 0 6 2 10 4 10 3 0
8 -4 11 -10z m41 -22 c5 -8 2 -9 -10 -5 -14 5 -17 3 -12 -8 3 -8 1 -15 -4 -15
-11 0 -13 23 -3 33 10 10 21 8 29 -5z m44 8 c0 -3 -4 -8 -10 -11 -5 -3 -10 -1
-10 4 0 6 5 11 10 11 6 0 10 -2 10 -4z m33 -41 c-3 -9 -8 -14 -10 -11 -3 3 -2
9 2 15 9 16 15 13 8 -4z m-1393 -41 c0 -8 -19 -13 -24 -6 -3 5 1 9 9 9 8 0 15
-2 15 -3z m130 0 c0 -8 -19 -13 -24 -6 -3 5 1 9 9 9 8 0 15 -2 15 -3z m-90
-38 c0 -3 -4 -8 -10 -11 -5 -3 -10 -1 -10 4 0 6 5 11 10 11 6 0 10 -2 10 -4z
m1412 -23 c-2 -12 -6 -23 -7 -23 -1 0 -5 11 -7 23 -3 14 0 24 7 24 7 0 10 -10
7 -24z m-4692 -3 c0 -4 -6 -10 -13 -13 -7 -3 -13 3 -13 13 0 10 6 16 13 13 7
-3 13 -9 13 -13z m4657 -12 c-3 -7 -5 -2 -5 12 0 14 2 19 5 13 2 -7 2 -19 0
-25z m-4627 12 c0 -5 -4 -10 -10 -10 -5 0 -10 5 -10 10 0 6 5 10 10 10 6 0 10
-4 10 -10z m-25 -30 c-3 -5 -12 -10 -18 -10 -7 0 -6 4 3 10 19 12 23 12 15 0z
m3199 -28 c3 -5 -1 -9 -9 -9 -8 0 -12 4 -9 9 3 4 7 8 9 8 2 0 6 -4 9 -8z
m-143 -59 c13 -16 12 -17 -3 -4 -10 7 -18 15 -18 17 0 8 8 3 21 -13z m-3041 3
c0 -3 -4 -8 -10 -11 -5 -3 -10 -1 -10 4 0 6 5 11 10 11 6 0 10 -2 10 -4z m-8
-25 c11 6 22 8 26 5 3 -3 0 -6 -7 -6 -7 0 -10 -4 -6 -9 3 -5 0 -13 -6 -17 -8
-4 -9 -3 -5 4 4 7 2 12 -3 12 -6 0 -11 -6 -11 -12 0 -9 -4 -8 -10 2 -5 8 -9
20 -9 25 0 6 3 4 6 -2 3 -10 10 -10 25 -2z m3012 -19 c3 -5 -1 -9 -9 -9 -8 0
-12 4 -9 9 3 4 7 8 9 8 2 0 6 -4 9 -8z m51 -61 c3 -5 2 -12 -3 -15 -5 -3 -9 1
-9 9 0 17 3 19 12 6z m-2822 -18 c-3 -7 -9 -13 -14 -13 -5 0 -9 6 -9 13 0 8 6
14 14 14 8 0 12 -6 9 -14z m-88 -46 c4 4 5 3 2 -4 -4 -6 -16 -9 -27 -6 -23 6
-22 5 -13 28 5 15 7 15 18 -4 6 -12 15 -18 20 -14z m10 15 c-3 -3 -11 0 -18 7
-9 10 -8 11 6 5 10 -3 15 -9 12 -12z m1083 10 c13 11 14 11 7 -1 -6 -11 -4
-13 8 -8 9 3 19 1 23 -5 4 -6 3 -8 -4 -4 -6 3 -13 -3 -17 -14 -4 -11 -11 -17
-17 -14 -6 4 -17 0 -23 -10 -11 -14 -12 -13 -12 10 0 14 2 22 6 16 3 -5 15 -6
26 -1 19 7 18 10 -7 13 -6 0 -12 7 -14 14 -1 7 0 8 3 2 3 -7 10 -7 21 2z
m-994 -18 c3 -8 2 -12 -4 -9 -6 3 -10 10 -10 16 0 14 7 11 14 -7z m933 3 c0
-7 -9 -14 -20 -14 -19 -2 -19 -2 -1 12 11 8 19 15 20 15 0 0 1 -6 1 -13z
m1679 -23 c1 -9 0 -13 -4 -10 -3 4 -7 14 -8 22 -1 9 0 13 4 10 3 -4 7 -14 8
-22z m-2576 -3 c0 -6 -4 -12 -8 -15 -5 -3 -9 1 -9 9 0 8 4 15 9 15 4 0 8 -4 8
-9z m125 -11 c0 -7 -6 -14 -13 -16 -7 -1 -8 0 -2 3 5 2 10 9 10 14 0 6 -4 7
-10 4 -5 -3 -10 -1 -10 5 0 7 6 10 13 8 6 -3 12 -11 12 -18z m63 -17 c12 -1
22 4 22 10 0 7 4 6 10 -3 5 -8 12 -11 16 -8 4 4 15 3 25 -3 11 -5 19 -6 19 -2
0 4 20 8 44 8 43 0 43 0 35 -28 -5 -19 -4 -25 3 -21 7 4 8 2 4 -5 -4 -6 -12
-9 -17 -6 -5 4 -9 -2 -9 -12 -1 -17 -1 -17 -11 0 -5 9 -15 17 -20 17 -6 0 -7
-5 -3 -12 4 -6 3 -8 -4 -4 -6 3 -45 7 -86 7 -42 1 -76 5 -76 11 0 5 5 6 10 3
15 -10 12 11 -4 24 -12 10 -15 8 -19 -6 -3 -15 -4 -14 -3 2 1 11 7 19 15 17
10 -2 12 4 8 20 -5 19 -4 21 6 8 7 -9 22 -16 35 -17z m804 20 c-6 -2 -10 -9
-6 -14 3 -5 0 -9 -5 -9 -12 0 -14 13 -4 23 3 4 11 7 17 6 6 0 5 -3 -2 -6z
m-32 -13 c0 -5 -5 -10 -11 -10 -5 0 -7 5 -4 10 3 6 8 10 11 10 2 0 4 -4 4 -10z
m-1050 -4 c0 -3 -4 -8 -10 -11 -5 -3 -10 -1 -10 4 0 6 5 11 10 11 6 0 10 -2
10 -4z m523 -20 c8 8 3 -19 -7 -34 -4 -7 -13 -11 -19 -9 -7 2 -21 -3 -32 -12
-18 -15 -19 -15 -7 0 7 9 10 24 6 33 -3 9 -1 16 6 16 6 0 8 -4 5 -10 -3 -5 0
-10 7 -10 8 0 14 9 15 19 1 14 -3 18 -15 14 -15 -4 -15 -3 -2 6 11 8 18 7 26
-4 6 -8 14 -12 17 -9z m219 4 c-5 -13 -3 -13 12 -1 17 15 78 22 69 9 -2 -5
-11 -8 -19 -8 -8 0 -12 -4 -9 -10 3 -6 -1 -7 -10 -4 -9 4 -15 3 -14 -2 4 -23
-2 -36 -16 -31 -8 4 -17 2 -21 -4 -4 -7 -10 -6 -18 0 -7 6 -16 8 -19 4 -4 -3
-7 -1 -7 5 0 7 -5 12 -11 12 -6 0 -9 -7 -6 -14 4 -11 1 -13 -10 -9 -14 5 -13
9 7 25 20 16 19 23 -2 19 -5 0 -8 4 -8 9 0 14 13 13 29 -2 11 -11 13 -10 9 2
-4 11 2 15 22 15 20 0 26 -4 22 -15z m108 -21 c-5 -9 -6 -19 -3 -23 3 -3 1 -6
-6 -6 -8 0 -11 6 -7 16 3 8 2 12 -3 9 -5 -3 -13 0 -17 6 -4 7 -3 9 4 5 6 -3
14 3 17 15 6 16 9 18 15 8 5 -7 5 -20 0 -30z m-284 7 c1 -7 -4 -13 -12 -13 -9
0 -11 4 -4 12 5 7 8 15 5 18 -3 4 -2 5 2 2 4 -3 8 -11 9 -19z m55 1 c-10 -9
-11 -8 -5 6 3 10 9 15 12 12 3 -3 0 -11 -7 -18z m-427 -3 c3 -8 2 -12 -4 -9
-6 3 -10 10 -10 16 0 14 7 11 14 -7z m885 7 c2 -1 -4 -11 -15 -23 -14 -15 -15
-20 -4 -16 12 4 15 -3 15 -32 1 -35 -1 -38 -24 -33 -20 3 -22 2 -12 -10 6 -8
9 -22 5 -31 -4 -12 -2 -15 9 -10 8 3 18 1 22 -5 3 -7 0 -8 -9 -5 -11 4 -16 0
-17 -12 -1 -18 -2 -18 -6 -1 -5 18 -5 18 -19 0 -14 -17 -14 -16 -4 5 6 12 8
28 4 34 -5 7 -3 8 6 3 8 -5 11 -3 8 6 -3 8 -12 13 -19 11 -8 -2 -11 0 -6 4 4
4 0 19 -9 33 -9 14 -11 20 -3 14 15 -15 33 -17 24 -4 -3 6 3 15 12 21 16 10
16 11 -4 7 -20 -4 -21 -3 -12 15 8 15 8 22 -1 28 -10 6 38 7 59 1z m-429 -11
c0 -5 -5 -10 -11 -10 -5 0 -7 5 -4 10 3 6 8 10 11 10 2 0 4 -4 4 -10z m1955
-9 c3 -5 2 -12 -3 -15 -5 -3 -9 1 -9 9 0 17 3 19 12 6z m-1790 -10 c3 -5 0
-13 -6 -17 -8 -4 -9 -3 -5 4 4 7 2 12 -3 12 -6 0 -11 -5 -11 -12 0 -6 -3 -9
-6 -5 -7 7 4 27 16 27 5 0 11 -4 15 -9z m1835 -41 c0 -5 -5 -10 -11 -10 -5 0
-7 5 -4 10 3 6 8 10 11 10 2 0 4 -4 4 -10z m-1760 -20 c6 -11 8 -20 6 -20 -3
0 -10 9 -16 20 -6 11 -8 20 -6 20 3 0 10 -9 16 -20z m-461 -17 c-1 -5 -1 -15
1 -23 1 -11 4 -9 9 4 7 19 8 19 13 -2 4 -12 0 -26 -9 -33 -11 -10 -14 -10 -11
2 2 8 -1 13 -7 12 -5 -1 -11 10 -11 23 -1 13 2 24 7 24 5 0 8 -3 8 -7z m141
-5 c0 -4 -4 -8 -9 -8 -6 0 -12 4 -15 8 -3 5 1 9 9 9 8 0 15 -4 15 -9z m-43
-11 c0 -8 -6 -14 -14 -14 -9 0 -10 4 -2 14 6 7 12 13 14 13 1 0 2 -6 2 -13z
m93 -7 c-9 -16 -40 -19 -40 -3 0 3 7 3 15 -1 9 -3 15 0 15 9 0 8 5 15 10 15 7
0 7 -6 0 -20z m35 -1 c-5 -26 -11 -32 -30 -35 -12 -2 -10 5 6 27 24 35 29 36
24 8z m425 1 c0 -5 -4 -10 -10 -10 -5 0 -10 5 -10 10 0 6 5 10 10 10 6 0 10
-4 10 -10z m-46 -117 c8 -9 31 -13 77 -14 36 -1 37 -2 37 -40 1 -22 -4 -39 -9
-39 -6 0 -8 4 -4 9 3 5 -6 22 -21 38 -14 15 -22 22 -19 14 6 -10 2 -12 -16 -7
-20 6 -21 5 -6 -4 9 -6 21 -8 27 -5 5 3 14 -3 20 -14 7 -13 7 -22 0 -26 -5 -3
-10 1 -10 9 0 9 -4 16 -10 16 -14 0 -8 -22 10 -38 11 -10 11 -12 1 -6 -9 5
-12 3 -7 -5 4 -6 12 -9 17 -5 5 3 6 11 2 17 -4 7 1 6 10 -2 12 -10 16 -23 13
-43 -7 -44 -16 -46 -12 -4 4 39 -5 42 -11 3 -4 -25 -33 -59 -33 -39 0 7 5 12
10 12 15 0 12 26 -4 39 -7 6 -12 23 -10 37 2 24 0 25 -37 21 -22 -2 -39 0 -39
5 0 6 8 7 18 4 15 -5 15 -4 2 6 -17 15 -27 53 -11 43 6 -3 11 -2 11 4 0 5 -6
12 -12 14 -7 3 -8 6 -2 6 6 1 14 -2 18 -6z m363 -10 c-4 -3 -1 -13 5 -22 7 -9
8 -13 4 -9 -5 4 -15 3 -22 -3 -8 -7 -14 -7 -19 1 -3 5 1 10 9 10 9 0 15 3 15
8 -2 13 1 22 8 22 3 0 3 -3 0 -7z m49 -1 c-2 -4 10 -8 29 -8 19 0 32 3 30 6
-2 3 12 4 31 2 25 -3 34 -9 34 -23 0 -10 -5 -19 -11 -19 -5 0 -8 4 -4 9 8 15
-13 23 -31 13 -11 -6 -13 -11 -5 -16 18 -12 13 -23 -13 -28 -17 -4 -23 -1 -19
9 3 7 10 10 15 7 6 -4 5 3 -1 15 -7 11 -15 21 -19 21 -12 0 -34 -17 -35 -26
-1 -5 -10 -8 -19 -7 -10 2 -17 -1 -15 -5 3 -9 -7 -12 -33 -12 -11 0 -20 4 -20
10 0 6 3 9 8 9 4 -1 10 0 15 1 4 1 13 3 20 4 6 1 11 9 9 18 -1 9 5 19 15 21
10 3 19 5 21 6 2 0 1 -3 -2 -7z m-511 -32 c3 -6 -1 -7 -9 -4 -18 7 -21 14 -7
14 6 0 13 -4 16 -10z m555 0 c0 -5 -4 -10 -10 -10 -5 0 -10 -7 -10 -16 0 -8
-4 -12 -10 -9 -6 4 -5 13 3 25 13 21 27 26 27 10z m55 1 c-3 -6 3 -14 12 -20
16 -9 16 -12 3 -21 -23 -15 -27 -12 -27 20 0 17 4 30 9 30 5 0 7 -4 3 -9z m11
-77 c-6 -6 -15 -9 -20 -6 -5 3 -6 -2 -3 -12 4 -11 3 -15 -4 -11 -6 4 -8 13 -5
20 3 8 0 15 -7 18 -7 2 2 4 19 4 25 0 29 -3 20 -13z m714 2 c0 -3 -4 -8 -10
-11 -5 -3 -10 -1 -10 4 0 6 5 11 10 11 6 0 10 -2 10 -4z m-1176 -34 c3 -5 -1
-9 -9 -9 -8 0 -12 4 -9 9 3 4 7 8 9 8 2 0 6 -4 9 -8z m733 -23 c-3 -10 1 -23
9 -30 10 -8 14 -8 14 0 0 6 -5 11 -11 11 -5 0 -7 5 -4 10 5 7 11 8 19 1 8 -7
17 -6 26 1 13 8 12 9 -2 5 -9 -3 -22 2 -30 10 -11 14 -11 16 4 10 9 -3 18 -3
20 2 2 4 28 5 58 2 53 -6 55 -7 58 -37 l3 -30 -80 0 c-45 0 -81 4 -81 8 0 3
-11 5 -24 2 -21 -3 -24 0 -22 25 0 20 5 27 15 23 9 -3 12 -1 7 6 -5 8 -2 10 9
6 10 -4 15 -14 12 -25z m-366 14 c0 -5 3 -19 5 -33 4 -23 4 -23 -9 -6 -8 11
-19 16 -25 12 -7 -4 -12 -2 -12 3 0 6 8 11 18 11 14 0 15 2 2 10 -13 8 -12 10
3 10 9 0 17 -3 18 -7z m765 -19 c1 -9 0 -13 -4 -10 -3 4 -7 14 -8 22 -1 9 0
13 4 10 3 -4 7 -14 8 -22z m-821 -3 c3 -5 2 -12 -3 -15 -5 -3 -9 1 -9 9 0 17
3 19 12 6z m-283 -23 c-9 -9 -9 -15 0 -25 8 -10 8 -17 -1 -26 -10 -9 -11 -8
-6 4 4 10 2 20 -4 24 -6 3 -11 -2 -11 -13 0 -11 -6 -25 -13 -31 -10 -8 -14 -7
-14 4 0 8 4 12 9 9 4 -3 8 2 8 11 0 20 22 55 34 55 6 0 5 -5 -2 -12z m328 2
c0 -5 -5 -10 -11 -10 -5 0 -7 5 -4 10 3 6 8 10 11 10 2 0 4 -4 4 -10z m-300
-20 c0 -5 -2 -10 -4 -10 -3 0 -8 5 -11 10 -3 6 -1 10 4 10 6 0 11 -4 11 -10z
m375 0 c3 -5 1 -10 -4 -10 -6 0 -11 5 -11 10 0 6 2 10 4 10 3 0 8 -4 11 -10z
m-465 -21 c0 -9 -31 -21 -38 -14 -3 3 0 5 7 5 7 0 10 4 7 8 -3 5 1 9 9 9 8 0
15 -4 15 -8z m967 -6 c0 -10 -4 -10 -16 -1 -9 7 -18 13 -20 15 -2 1 5 1 16 0
11 0 20 -7 20 -14z m-877 -13 c0 -5 -5 -10 -11 -10 -5 0 -7 5 -4 10 3 6 8 10
11 10 2 0 4 -4 4 -10z m240 -1 c0 -5 5 -7 10 -4 6 3 10 2 10 -3 0 -15 -32 -24
-44 -12 -8 8 -5 9 9 4 18 -7 18 -6 6 9 -9 11 -10 17 -2 17 6 0 11 -5 11 -11z
m635 -11 c4 4 2 -3 -4 -15 -6 -13 -17 -23 -24 -22 -9 0 -9 2 1 6 6 2 12 9 12
14 0 6 -4 8 -8 5 -5 -3 -9 1 -9 9 0 10 4 12 12 5 7 -5 15 -6 20 -2z m-921 -13
c-19 -15 -19 -16 1 -13 11 2 23 8 27 13 5 6 8 5 8 -3 0 -8 5 -10 13 -6 9 6 9
5 0 -8 -7 -8 -10 -18 -6 -21 6 -7 0 -9 -29 -11 -7 -1 -18 -7 -24 -15 -9 -11
-12 -12 -19 -1 -5 9 -4 11 3 6 16 -10 15 6 0 24 -11 12 -10 12 5 1 12 -9 17
-10 17 -2 0 6 -7 14 -15 17 -14 6 -13 8 2 20 25 19 41 18 17 -1z m944 -20 c-2
-6 -6 -9 -10 -7 -10 3 -10 -12 -1 -21 3 -4 12 -2 20 5 11 8 12 7 7 -6 -7 -19
-16 -20 -32 -4 -7 7 -12 8 -12 2 0 -5 5 -15 10 -20 7 -7 6 -11 -4 -11 -8 0
-13 4 -10 9 3 4 -5 8 -18 9 -23 0 -23 0 -1 9 12 5 24 18 28 30 4 12 11 20 17
18 5 -2 8 -8 6 -13z m-638 -10 c11 -13 10 -14 -4 -9 -9 3 -16 10 -16 15 0 13
6 11 20 -6z m-127 -20 c-3 -9 -8 -14 -10 -11 -3 3 -2 9 2 15 9 16 15 13 8 -4z
m300 -18 c4 3 7 4 7 0 0 -17 -20 -14 -36 6 -19 22 -19 22 2 4 11 -9 24 -14 27
-10z m-408 -7 c22 -25 36 -26 29 -2 -5 14 -4 15 5 2 10 -13 12 -13 22 0 9 13
10 12 5 -2 -3 -10 -1 -18 4 -18 6 0 10 4 10 9 0 5 8 8 18 6 9 -2 19 -4 22 -4
2 -1 -1 -6 -8 -13 -14 -14 -16 -32 -2 -23 6 3 7 -1 4 -9 -3 -9 -14 -16 -23
-16 -9 0 -12 3 -6 8 21 15 13 39 -14 39 -19 0 -27 -6 -27 -19 0 -21 7 -23 26
-5 12 10 12 9 1 -5 -13 -18 -59 -19 -52 -2 1 5 7 8 12 7 5 -2 9 2 9 7 0 15
-26 12 -39 -3 -6 -8 -7 -18 -3 -22 4 -5 1 -5 -6 -1 -10 6 -10 11 -2 21 6 7 7
15 3 17 -4 3 -2 3 5 1 8 -1 12 3 9 9 -2 7 -10 12 -16 10 -7 -1 -10 2 -7 7 4 5
0 12 -6 14 -8 3 -8 6 -2 6 6 1 19 -8 29 -19z m192 5 c0 -8 -4 -12 -9 -9 -5 3
-6 10 -3 15 9 13 12 11 12 -6z m82 -6 c-22 -13 -31 -11 -17 5 7 8 17 12 22 9
4 -3 2 -9 -5 -14z m-389 7 c0 -2 -8 -10 -17 -17 -16 -13 -17 -12 -4 4 13 16
21 21 21 13z m70 0 c0 -2 -7 -7 -16 -10 -8 -3 -12 -2 -9 4 6 10 25 14 25 6z
m275 -7 c11 -16 1 -19 -13 -3 -7 8 -8 14 -3 14 5 0 13 -5 16 -11z m255 1 c0
13 2 13 9 1 7 -11 13 -12 23 -3 11 9 14 4 14 -27 0 -30 -4 -37 -19 -38 -19 -2
-19 -2 -1 13 19 14 19 14 0 29 -24 18 -39 2 -30 -30 4 -14 3 -16 -4 -7 -5 8
-13 14 -18 15 -5 1 -8 7 -8 14 1 6 -7 11 -17 10 -11 -1 -19 -7 -19 -14 0 -7
-5 -13 -10 -13 -7 0 -7 7 0 20 6 11 15 18 21 15 5 -4 9 -1 9 6 0 7 8 5 21 -7
22 -19 22 -19 15 6 -6 19 -5 21 3 10 10 -13 11 -13 11 0z m125 0 c3 -5 1 -10
-4 -10 -6 0 -11 5 -11 10 0 6 2 10 4 10 3 0 8 -4 11 -10z m339 -14 c13 -4 17
-2 13 8 -6 14 17 17 28 3 3 -4 2 -5 -2 -2 -3 3 -13 -4 -21 -16 -8 -11 -20 -18
-28 -15 -16 6 -19 -5 -4 -20 6 -6 3 -10 -9 -10 -12 0 -17 6 -13 18 2 10 -1 18
-7 18 -7 0 -10 -4 -7 -9 3 -5 -1 -14 -9 -21 -10 -9 -15 -9 -15 -1 0 6 5 11 10
11 6 0 9 6 8 13 -2 6 5 11 15 11 10 -1 16 3 14 10 -3 6 -10 10 -16 8 -7 -1
-10 2 -6 8 4 7 11 7 18 2 7 -5 20 -12 31 -16z m-748 -28 c-18 -26 -22 -17 -5
14 6 11 13 17 16 15 3 -3 -2 -16 -11 -29z m639 0 c11 -24 12 -28 2 -16 -8 10
-16 16 -18 13 -3 -2 -5 5 -5 15 0 27 3 25 21 -12z m35 12 c-6 -11 -13 -20 -16
-20 -2 0 0 9 6 20 6 11 13 20 16 20 2 0 0 -9 -6 -20z m146 8 c5 -7 3 -8 -6 -3
-10 6 -12 4 -7 -8 3 -10 2 -17 -3 -17 -11 0 -13 23 -3 33 9 9 11 9 19 -5z
m-506 -12 c0 -3 -4 -8 -10 -11 -5 -3 -10 -1 -10 4 0 6 5 11 10 11 6 0 10 -2
10 -4z m458 -16 c-7 -10 -14 -17 -17 -15 -4 4 18 35 25 35 2 0 -1 -9 -8 -20z
m-535 -3 c3 -8 -1 -14 -8 -14 -7 0 -11 6 -8 14 3 7 6 13 8 13 2 0 5 -6 8 -13z
m619 -30 c3 4 3 2 1 -6 -2 -7 2 -11 10 -8 8 3 13 -3 14 -17 0 -11 -1 -15 -4
-8 -3 6 -11 12 -19 12 -9 0 -13 -4 -10 -8 3 -5 -1 -9 -9 -9 -8 0 -12 4 -9 8 2
4 1 9 -3 12 -5 2 -2 2 5 1 17 -5 15 6 -5 30 -18 21 -18 21 3 3 12 -10 24 -15
26 -10z m-1102 7 c0 -8 -19 -13 -24 -6 -3 5 1 9 9 9 8 0 15 -2 15 -3z m857
-18 c1 -12 -1 -16 -4 -9 -2 7 -11 9 -19 6 -13 -5 -13 -7 -3 -14 8 -4 10 -11 6
-16 -9 -9 -28 17 -21 29 3 4 0 8 -5 8 -6 0 -11 4 -11 8 0 5 13 8 28 8 21 0 28
-5 29 -20z m-252 -6 c-3 -5 -12 -10 -18 -10 -7 0 -6 4 3 10 19 12 23 12 15 0z"/>
<path d="M1203 5425 c0 -8 4 -12 9 -9 5 3 6 10 3 15 -9 13 -12 11 -12 -6z"/>
<path d="M1277 5353 c-14 -13 -6 -29 14 -30 18 -2 19 0 8 15 -8 9 -14 18 -15
20 0 1 -4 -1 -7 -5z"/>
<path d="M1564 5062 c3 -5 0 -13 -6 -15 -9 -4 -10 -6 -1 -6 17 -1 25 16 12 25
-7 4 -9 3 -5 -4z"/>
<path d="M1626 4981 c-17 -19 -17 -19 0 -17 9 2 18 10 20 19 3 21 1 21 -20 -2z"/>
<path d="M1710 4920 c0 -6 -4 -9 -8 -6 -5 3 -9 -1 -9 -9 0 -12 3 -12 16 -3 9
7 17 13 19 14 2 1 -1 5 -7 9 -6 3 -11 1 -11 -5z"/>
<path d="M1859 4795 c-1 -3 -3 -9 -4 -15 -1 -5 -3 -15 -4 -21 0 -5 -5 -8 -9
-5 -5 3 -9 -1 -9 -9 0 -36 25 -4 33 43 2 11 -5 18 -7 7z"/>
<path d="M1636 4495 c-7 -18 0 -35 14 -35 5 0 7 10 5 21 -6 29 -11 33 -19 14z"/>
<path d="M316 3145 c4 -8 11 -15 16 -15 6 0 5 6 -2 15 -7 8 -14 15 -16 15 -2
0 -1 -7 2 -15z"/>
<path d="M238 2858 c9 -9 7 -14 -6 -24 -14 -10 -13 -11 11 -7 15 3 27 8 27 12
0 10 -23 31 -34 31 -6 0 -5 -5 2 -12z"/>
<path d="M227 2799 c7 -9 10 -19 6 -22 -3 -4 -1 -7 5 -7 17 0 15 16 -5 31 -16
12 -17 12 -6 -2z"/>
<path d="M310 2800 c0 -5 5 -10 10 -10 6 0 10 5 10 10 0 6 -4 10 -10 10 -5 0
-10 -4 -10 -10z"/>
<path d="M305 2719 c-3 -4 2 -6 10 -5 21 3 28 13 10 13 -9 0 -18 -4 -20 -8z"/>
<path d="M604 2455 c-4 -8 -10 -13 -14 -10 -14 9 -23 -16 -11 -28 9 -9 11 -8
6 5 -5 13 -2 16 12 14 13 -3 19 2 19 15 0 23 -5 24 -12 4z"/>
<path d="M443 2443 c0 -9 4 -10 14 -2 7 6 13 12 13 14 0 1 -6 2 -13 2 -8 0
-14 -6 -14 -14z"/>
<path d="M877 2023 c-4 -3 -7 -11 -7 -17 0 -6 5 -5 12 2 6 6 9 14 7 17 -3 3
-9 2 -12 -2z"/>
<path d="M804 1746 c1 -8 5 -18 8 -22 4 -3 5 1 4 10 -1 8 -5 18 -8 22 -4 3 -5
-1 -4 -10z"/>
<path d="M715 1590 c-10 -11 -16 -20 -14 -21 2 0 12 -2 22 -4 9 -2 22 5 27 16
9 15 8 17 -6 12 -12 -4 -15 -3 -10 5 11 19 1 14 -19 -8z m19 -8 c3 -5 -1 -9
-9 -9 -8 0 -12 4 -9 9 3 4 7 8 9 8 2 0 6 -4 9 -8z"/>
<path d="M796 1532 c-3 -5 1 -9 9 -9 8 0 12 4 9 9 -3 4 -7 8 -9 8 -2 0 -6 -4
-9 -8z"/>
<path d="M783 1458 c2 -7 10 -13 17 -13 7 0 15 6 18 13 2 7 -5 12 -18 12 -13
0 -20 -5 -17 -12z"/>
<path d="M793 1307 c0 -8 6 -14 14 -14 9 0 10 4 2 14 -6 7 -12 13 -14 13 -1 0
-2 -6 -2 -13z"/>
<path d="M924 1068 c-4 -7 -3 -8 4 -4 15 9 52 -11 49 -27 -1 -6 -9 -17 -17
-24 -13 -10 -11 -11 7 -7 33 9 35 31 6 54 -29 23 -39 25 -49 8z"/>
<path d="M1510 761 c0 -7 -4 -9 -10 -6 -6 3 -7 -1 -4 -10 5 -11 2 -14 -10 -9
-9 3 -13 10 -10 15 3 5 -2 6 -12 2 -14 -5 -13 -8 7 -19 13 -7 27 -13 30 -14 8
0 20 42 14 49 -3 2 -5 -1 -5 -8z"/>
<path d="M1393 745 c0 -8 4 -12 9 -9 5 3 6 10 3 15 -9 13 -12 11 -12 -6z"/>
<path d="M1430 730 c0 -6 7 -10 15 -10 8 0 15 2 15 4 0 2 -7 6 -15 10 -8 3
-15 1 -15 -4z"/>
<path d="M1583 735 c0 -8 4 -12 9 -9 5 3 6 10 3 15 -9 13 -12 11 -12 -6z"/>
<path d="M1840 755 c-10 -12 -16 -13 -26 -4 -11 9 -18 8 -29 -1 -13 -11 -13
-14 2 -25 10 -8 22 -10 28 -5 5 5 13 9 18 9 4 1 7 4 8 9 0 4 5 13 11 20 6 6 8
12 5 12 -2 0 -10 -7 -17 -15z m-26 -26 c-3 -5 -10 -7 -15 -3 -5 3 -7 10 -3 15
3 5 10 7 15 3 5 -3 7 -10 3 -15z"/>
<path d="M2120 735 c-7 -8 -8 -15 -2 -15 5 0 15 7 22 15 7 8 8 15 2 15 -5 0
-15 -7 -22 -15z"/>
<path d="M2120 689 c-13 -7 -13 -9 -1 -9 11 0 10 -4 -4 -13 -17 -13 -17 -14 5
-12 13 1 24 9 26 18 3 22 -8 28 -26 16z"/>
<path d="M2122 478 c-13 -13 1 -38 22 -38 6 0 3 5 -7 11 -14 8 -16 14 -6 25
14 17 8 19 -9 2z"/>
<path d="M2170 386 c0 -2 8 -10 18 -17 15 -13 16 -12 3 4 -13 16 -21 21 -21
13z"/>
<path d="M2506 467 c3 -10 9 -15 12 -12 3 3 0 11 -7 18 -10 9 -11 8 -5 -6z"/>
<path d="M2885 332 c-15 -10 -16 -29 -2 -29 7 0 13 9 13 19 0 10 0 18 -1 18 0
0 -4 -4 -10 -8z"/>
<path d="M2990 315 c5 -7 8 -14 5 -16 -2 -3 4 -5 14 -5 10 0 18 6 18 12 0 7
-7 10 -15 6 -9 -3 -13 -1 -9 5 3 5 0 10 -8 10 -10 0 -12 -4 -5 -12z"/>
<path d="M2190 183 c0 -7 4 -13 9 -13 5 0 11 6 14 13 3 8 -1 14 -9 14 -8 0
-14 -6 -14 -14z"/>
<path d="M1050 5545 c0 -9 5 -15 11 -13 6 2 11 8 11 13 0 5 -5 11 -11 13 -6 2
-11 -4 -11 -13z"/>
<path d="M1050 5396 c0 -2 8 -10 18 -17 15 -13 16 -12 3 4 -13 16 -21 21 -21
13z"/>
<path d="M1155 5350 c-4 -6 -10 -8 -15 -5 -5 3 -11 2 -14 -3 -2 -4 6 -8 18 -8
12 0 23 6 23 13 0 16 -4 16 -12 3z"/>
<path d="M1335 5111 c-3 -5 -2 -12 3 -15 5 -3 9 1 9 9 0 17 -3 19 -12 6z"/>
<path d="M1400 5051 c0 -6 4 -13 10 -16 6 -3 7 1 4 9 -7 18 -14 21 -14 7z"/>
<path d="M1435 5041 c-3 -5 -2 -12 3 -15 5 -3 9 1 9 9 0 17 -3 19 -12 6z"/>
<path d="M1550 4921 c0 -6 4 -13 10 -16 6 -3 7 1 4 9 -7 18 -14 21 -14 7z"/>
<path d="M1548 4888 c5 -5 16 -8 23 -6 8 3 3 7 -10 11 -17 4 -21 3 -13 -5z"/>
<path d="M1610 4840 c0 -5 5 -10 11 -10 5 0 7 5 4 10 -3 6 -8 10 -11 10 -2 0
-4 -4 -4 -10z"/>
<path d="M1643 4835 c-3 -9 -3 -18 -1 -21 3 -3 8 4 11 16 6 23 -1 27 -10 5z"/>
<path d="M1630 4649 c0 -5 -6 -7 -12 -3 -7 4 -10 3 -5 -1 4 -5 16 -9 27 -10
15 -1 17 1 9 12 -14 16 -19 17 -19 2z"/>
<path d="M1356 4368 c5 -8 1 -9 -12 -5 -18 7 -18 6 -2 -6 10 -8 16 -16 13 -19
-3 -2 2 -5 10 -5 10 0 12 4 4 13 -7 8 -6 13 3 16 8 3 6 7 -6 11 -11 5 -15 3
-10 -5z"/>
<path d="M1126 4142 c-3 -5 1 -9 9 -9 8 0 12 4 9 9 -3 4 -7 8 -9 8 -2 0 -6 -4
-9 -8z"/>
<path d="M1080 4071 c-7 -15 -7 -22 2 -27 7 -4 10 -4 6 1 -4 4 -3 16 3 26 5
11 7 19 5 19 -3 0 -10 -9 -16 -19z"/>
<path d="M988 3993 c6 -2 10 -8 8 -12 -3 -4 5 -8 16 -8 20 -2 20 -1 2 12 -11
8 -23 14 -29 14 -5 0 -4 -3 3 -6z"/>
<path d="M910 3926 c0 -2 9 -6 20 -9 11 -3 18 -1 14 4 -5 9 -34 13 -34 5z"/>
<path d="M850 3865 c0 -8 4 -15 10 -15 5 0 7 7 4 15 -4 8 -8 15 -10 15 -2 0
-4 -7 -4 -15z"/>
<path d="M773 3775 c0 -8 4 -12 9 -9 5 3 6 10 3 15 -9 13 -12 11 -12 -6z"/>
<path d="M710 3729 c0 -5 5 -7 10 -4 6 3 10 8 10 11 0 2 -4 4 -10 4 -5 0 -10
-5 -10 -11z"/>
<path d="M700 3706 c0 -2 8 -10 18 -17 15 -13 16 -12 3 4 -13 16 -21 21 -21
13z"/>
<path d="M736 3695 c4 -8 8 -15 10 -15 2 0 4 7 4 15 0 8 -4 15 -10 15 -5 0 -7
-7 -4 -15z"/>
<path d="M640 3650 c-6 -11 -8 -20 -6 -20 3 0 10 9 16 20 6 11 8 20 6 20 -3 0
-10 -9 -16 -20z"/>
<path d="M570 3595 c0 -5 5 -17 10 -25 5 -8 10 -10 10 -5 0 6 -5 17 -10 25 -5
8 -10 11 -10 5z"/>
<path d="M490 3500 c0 -5 10 -14 23 -20 20 -10 20 -10 5 3 -10 8 -15 17 -11
20 3 4 1 7 -5 7 -7 0 -12 -4 -12 -10z"/>
<path d="M455 3451 c-6 -11 13 -26 22 -17 4 3 1 6 -6 6 -7 0 -9 5 -6 10 3 6 4
10 1 10 -3 0 -7 -4 -11 -9z"/>
<path d="M447 3419 c7 -7 15 -10 18 -7 3 3 -2 9 -12 12 -14 6 -15 5 -6 -5z"/>
<path d="M353 3365 c0 -7 6 -11 14 -8 7 3 13 6 13 8 0 2 -6 5 -13 8 -8 3 -14
-1 -14 -8z"/>
<path d="M391 3373 c4 -21 -2 -34 -13 -27 -7 4 -8 3 -4 -4 4 -7 11 -12 15 -12
13 0 21 39 10 46 -5 3 -9 2 -8 -3z"/>
<path d="M315 3270 c-3 -6 1 -7 9 -4 18 7 21 14 7 14 -6 0 -13 -4 -16 -10z"/>
<path d="M237 3233 c3 -7 6 -13 8 -13 2 0 5 6 8 13 3 8 -1 14 -8 14 -7 0 -11
-6 -8 -14z"/>
<path d="M154 3168 c3 -15 26 -23 26 -8 0 6 -4 9 -9 6 -5 -4 -12 -1 -14 4 -3
6 -4 5 -3 -2z"/>
<path d="M90 3084 c0 -11 29 -34 34 -26 2 4 -4 13 -15 20 -10 7 -19 10 -19 6z"/>
<path d="M7 3023 c-8 -8 4 -33 15 -33 6 0 4 7 -3 16 -12 15 -11 16 9 10 12 -4
22 -4 22 1 0 10 -35 15 -43 6z"/>
<path d="M72 2773 c2 -9 12 -17 24 -18 16 -1 20 3 16 17 -4 18 -5 18 -18 1
-13 -17 -14 -17 -8 0 4 10 1 17 -6 17 -6 0 -10 -8 -8 -17z"/>
<path d="M375 2690 c-3 -6 1 -13 10 -16 21 -9 26 -2 10 13 -9 8 -16 9 -20 3z"/>
<path d="M360 2646 c0 -2 7 -7 16 -10 8 -3 12 -2 9 4 -6 10 -25 14 -25 6z"/>
<path d="M496 2588 c5 -8 1 -9 -12 -5 -14 5 -12 2 6 -12 17 -14 28 -17 37 -10
16 14 7 34 -17 36 -13 1 -18 -2 -14 -9z"/>
<path d="M506 2504 c-4 -9 -4 -19 -1 -22 3 -3 5 0 5 7 0 7 4 9 10 6 6 -3 7 1
4 9 -8 20 -10 20 -18 0z"/>
<path d="M670 2380 c-12 -7 -10 -9 7 -7 12 0 19 5 17 9 -6 10 -6 10 -24 -2z"/>
<path d="M764 2298 c1 -13 6 -26 13 -31 7 -4 11 -13 9 -20 -1 -6 -1 -9 1 -4 3
4 8 5 13 2 12 -7 19 20 10 36 -5 7 -12 10 -17 6 -4 -5 -1 -13 7 -18 13 -9 13
-10 0 -6 -8 2 -15 11 -15 20 0 9 -5 21 -11 27 -8 8 -10 4 -10 -12z"/>
<path d="M630 2238 c0 -4 5 -8 10 -8 6 0 10 -5 10 -11 0 -5 -4 -8 -8 -5 -5 3
-9 -1 -9 -7 0 -19 35 -18 41 1 10 30 7 36 -19 38 -14 0 -25 -3 -25 -8z m39
-20 c-5 -10 -11 -18 -12 -18 -2 0 -3 8 -3 18 0 10 6 19 13 19 8 0 9 -6 2 -19z"/>
<path d="M705 2130 c-3 -6 1 -7 9 -4 18 7 21 14 7 14 -6 0 -13 -4 -16 -10z"/>
<path d="M670 1320 c-9 -6 -10 -10 -3 -10 6 0 15 5 18 10 8 12 4 12 -15 0z"/>
<path d="M635 1301 c-3 -6 5 -15 17 -21 21 -10 21 -10 6 3 -10 8 -15 17 -11
20 3 4 4 7 0 7 -3 0 -8 -4 -12 -9z"/>
<path d="M796 1033 c-6 -14 -5 -15 5 -6 7 7 10 15 7 18 -3 3 -9 -2 -12 -12z"/>
<path d="M912 875 c1 -14 6 -25 11 -25 5 0 6 8 3 18 -6 16 -5 16 8 0 20 -27
29 -21 10 7 -9 14 -20 25 -25 25 -5 0 -8 -11 -7 -25z"/>
<path d="M1065 719 c-3 -4 2 -6 10 -5 21 3 28 13 10 13 -9 0 -18 -4 -20 -8z"/>
<path d="M1195 661 c-6 -11 13 -26 22 -17 4 3 1 6 -6 6 -7 0 -9 5 -6 10 3 6 4
10 1 10 -3 0 -7 -4 -11 -9z"/>
<path d="M1772 624 c10 -10 20 -15 24 -12 3 4 -5 12 -18 18 -22 12 -22 12 -6
-6z"/>
<path d="M1790 596 c0 -2 8 -10 18 -17 15 -13 16 -12 3 4 -13 16 -21 21 -21
13z"/>
<path d="M1970 556 c-10 -13 -10 -19 0 -32 12 -14 15 -14 29 0 14 15 14 17 0
32 -14 14 -17 14 -29 0z m25 -26 c-5 -8 -11 -8 -17 -2 -6 6 -7 16 -3 22 5 8
11 8 17 2 6 -6 7 -16 3 -22z"/>
<path d="M1986 431 c-3 -5 1 -11 9 -15 8 -3 15 -1 15 4 0 13 -18 22 -24 11z"/>
<path d="M3386 258 c3 -5 10 -6 15 -3 13 9 11 12 -6 12 -8 0 -12 -4 -9 -9z"/>
<path d="M2516 247 c3 -10 9 -15 12 -12 3 3 0 11 -7 18 -10 9 -11 8 -5 -6z"/>
<path d="M3397 188 c19 -21 31 -25 14 -5 -6 8 -9 16 -6 19 3 2 -2 5 -10 5 -13
0 -13 -3 2 -19z"/>
<path d="M2976 153 c-6 -14 -5 -15 5 -6 7 7 10 15 7 18 -3 3 -9 -2 -12 -12z"/>
<path d="M3379 133 c-12 -16 -12 -17 2 -6 9 7 20 9 24 5 5 -4 5 -1 1 6 -9 16
-11 15 -27 -5z"/>
<path d="M2545 99 c-4 -6 -5 -12 -2 -15 2 -3 7 2 10 11 7 17 1 20 -8 4z"/>
<path d="M3373 96 c-3 -6 -3 -8 2 -4 4 4 13 3 20 -2 8 -7 12 -5 12 3 0 16 -25
18 -34 3z"/>
<path d="M2910 40 c-9 -6 -10 -10 -3 -10 6 0 15 5 18 10 8 12 4 12 -15 0z"/>
<path d="M2456 13 c-6 -14 -5 -15 5 -6 7 7 10 15 7 18 -3 3 -9 -2 -12 -12z"/>
</g>
</svg>
